<?xml version="1.0" standalone="no"?>
<!DOCTYPE svg PUBLIC "-//W3C//DTD SVG 1.1//EN" "http://www.w3.org/Graphics/SVG/1.1/DTD/svg11.dtd" >
<svg xmlns="http://www.w3.org/2000/svg">
<metadata>
Created by FontForge 20120731 at Wed Aug 10 19:17:19 2016
 By admin
</metadata>
<defs>
<font id="iconfont" horiz-adv-x="1024" >
  <font-face 
    font-family="iconfont"
    font-weight="500"
    font-stretch="normal"
    units-per-em="1024"
    panose-1="2 0 6 3 0 0 0 0 0 0"
    ascent="896"
    descent="-128"
    x-height="792"
    bbox="0 -128 1024 896.2"
    underline-thickness="50"
    underline-position="-100"
    unicode-range="U+0078-E7BC"
  />
<missing-glyph horiz-adv-x="374" 
d="M34 0v682h272v-682h-272zM68 34h204v614h-204v-614z" />
    <glyph glyph-name=".notdef" horiz-adv-x="374" 
d="M34 0v682h272v-682h-272zM68 34h204v614h-204v-614z" />
    <glyph glyph-name=".null" horiz-adv-x="0" 
 />
    <glyph glyph-name="nonmarkingreturn" horiz-adv-x="341" 
 />
    <glyph glyph-name="x" unicode="x" horiz-adv-x="1001" 
d="M281 543q-27 -1 -53 -1h-83q-18 0 -36.5 -6t-32.5 -18.5t-23 -32t-9 -45.5v-76h912v41q0 16 -0.5 30t-0.5 18q0 13 -5 29t-17 29.5t-31.5 22.5t-49.5 9h-133v-97h-438v97zM955 310v-52q0 -23 0.5 -52t0.5 -58t-10.5 -47.5t-26 -30t-33 -16t-31.5 -4.5q-14 -1 -29.5 -0.5
t-29.5 0.5h-32l-45 128h-439l-44 -128h-29h-34q-20 0 -45 1q-25 0 -41 9.5t-25.5 23t-13.5 29.5t-4 30v167h911zM163 247q-12 0 -21 -8.5t-9 -21.5t9 -21.5t21 -8.5q13 0 22 8.5t9 21.5t-9 21.5t-22 8.5zM316 123q-8 -26 -14 -48q-5 -19 -10.5 -37t-7.5 -25t-3 -15t1 -14.5
t9.5 -10.5t21.5 -4h37h67h81h80h64h36q23 0 34 12t2 38q-5 13 -9.5 30.5t-9.5 34.5q-5 19 -11 39h-368zM336 498v228q0 11 2.5 23t10 21.5t20.5 15.5t34 6h188q31 0 51.5 -14.5t20.5 -52.5v-227h-327z" />
    <glyph glyph-name="uniE603" unicode="&#xe603;" 
d="M472 624l-399 -400q-17 -16 -17 -39.5t16.5 -40t40 -16.5t40.5 16l359 360l359 -360q17 -16 40.5 -16t40 16.5t16.5 40t-17 39.5l-399 400q-17 16 -40 16t-40 -16z" />
    <glyph glyph-name="uniE604" unicode="&#xe604;" 
d="M1007 36q-26 -38 -69 -83q-61 -64 -95 -64h-1h-1q-74 2 -160 43q-159 75 -353 269t-269 353q-40 86 -43 160v1q-1 33 64 96q45 43 83 69q26 18 54 16q27 -3 41 -22q8 -11 67 -100t69 -106q19 -30 -5 -77q-10 -19 -52 -93q43 -62 135 -154q47 -47 89.5 -83t55 -45
t18.5 -13q7 -4 9 -12t-2 -15t-12 -9.5t-15 2.5q-59 34 -172 147q-113 114 -147 171q-6 11 0 21q51 90 57 102q14 26 7 37q-10 15 -68.5 104t-66.5 99q-3 5 -13.5 5.5t-25.5 -8.5q-35 -24 -77 -65q-23 -22 -36 -39t-15 -21.5t-1 -5.5v-1q2 -65 39 -144q72 -152 261 -341.5
t341 -261.5q79 -37 144 -39h1q4 0 15 7q21 13 52 45q40 43 64 78q9 15 9 25t-5 14q-12 8 -101 67t-103 68q-9 5 -31 -4q-3 -1 -6 -3q-7 -4 -15 -1.5t-12 10t-1.5 15.5t9.5 12l10 4q40 17 67 1q14 -9 103.5 -68t102.5 -68q20 -14 22.5 -42t-16.5 -53zM978 806l-233 -232h186
q8 0 14 -6t6 -14.5t-6 -14t-14 -5.5h-255v254q0 9 6 14.5t14.5 5.5t14.5 -5.5t6 -14.5v-186l232 233q6 6 14.5 6t14 -6t5.5 -14.5t-5 -14.5z" />
    <glyph glyph-name="uniE606" unicode="&#xe606;" 
d="M982 585q-39 91 -109.5 161.5t-162.5 109.5q-93 40 -196 40h-2h-2q-103 0 -196 -40q-92 -39 -162.5 -109.5t-109.5 -161.5q-40 -95 -40 -199t40 -198q39 -92 109.5 -162.5t162.5 -109.5q93 -39 196 -40h1h1h1h1q103 1 196 40q92 39 162.5 109.5t109.5 162.5q40 94 40 198
t-40 199zM180 718q65 65 149 100q29 12 59 21q-38 -38 -67 -98q-19 -38 -34 -82q-67 18 -119 45zM80 569q24 56 60 103q59 -32 136 -52q-27 -100 -29 -213h-203q3 84 36 162zM140 100q-36 48 -60 104q-33 77 -36 162h203q2 -114 29 -213q-77 -21 -136 -53zM329 -46
q-84 36 -149 101q-6 6 -12 13q52 28 119 45q15 -44 34 -82q29 -59 67 -97q-30 8 -59 20zM492 -81q-32 7 -62 32q-41 34 -73 98q-17 34 -30 74q79 16 165 18v-222zM492 182q-92 -2 -177 -20q-25 95 -27 204h204v-184zM492 407h-204q2 108 27 203q85 -18 177 -20v-183z
M492 631q-86 2 -165 18q13 40 30 74q32 64 73 98q30 26 62 32v-222zM695 818q84 -35 149 -100l12 -14q-52 -27 -119 -45q-15 44 -34 82q-29 60 -67 98q30 -9 59 -21zM532 853q32 -6 62 -32q41 -34 73 -98q17 -34 30 -74q-79 -16 -165 -18v222zM532 590q93 2 177 20
q25 -95 27 -203h-204v183zM532 366h204q-2 -109 -27 -204q-85 18 -177 20v184zM594 -49q-30 -25 -62 -32v222q86 -2 165 -18q-13 -40 -30 -74q-32 -64 -73 -98zM844 55q-65 -65 -149 -101q-29 -12 -59 -20q38 38 67 97q19 38 34 82q67 -17 119 -45q-6 -7 -12 -13zM944 204
q-24 -56 -60 -104q-59 32 -136 53q27 99 29 213h203q-3 -85 -36 -162zM777 407q-2 113 -29 213q77 20 136 52q36 -47 60 -103q33 -78 36 -162h-203z" />
    <glyph glyph-name="uniE608" unicode="&#xe608;" 
d="M1002 675h-234l-76 113q-6 9 -17 9h-326q-11 0 -17 -9l-76 -113h-234q-8 0 -14 -6t-6 -15v-652q0 -9 6 -15t14 -6h980q8 0 14 6t6 15v652q0 9 -6 15t-14 6zM981 22h-938v612h224q11 0 17 9l76 113h304l76 -113q6 -9 17 -9h224v-612zM777 348q0 -18 -2 -36q-1 -8 -8 -13
t-15.5 -4t-13.5 8t-4 15q2 15 2 30q0 93 -65.5 159t-158.5 66t-158.5 -66t-65.5 -159t65.5 -158.5t158.5 -65.5q87 0 151 59q7 6 15.5 5.5t14 -7t5 -15t-6.5 -13.5q-76 -70 -179 -70q-110 0 -187.5 77.5t-77.5 187.5t77.5 188t187.5 78t187.5 -78t77.5 -188z" />
    <glyph glyph-name="uniE609" unicode="&#xe609;" 
d="M864 820h-704q-40 0 -68 -28t-28 -68v-160q0 -13 9.5 -22.5t22.5 -9.5t22.5 9.5t9.5 22.5v128q0 27 18.5 45.5t45.5 18.5h640q27 0 45.5 -18.5t18.5 -45.5v-128q0 -13 9.5 -22.5t22.5 -9.5t22.5 9.5t9.5 22.5v160q0 40 -28 68t-68 28zM928 212q-13 0 -22.5 -9.5
t-9.5 -22.5v-128q0 -27 -18.5 -45.5t-45.5 -18.5h-640q-27 0 -45.5 18.5t-18.5 45.5v128q0 13 -9.5 22.5t-22.5 9.5t-22.5 -9.5t-9.5 -22.5v-160q0 -40 28 -68t68 -28h704q40 0 68 28t28 68v160q0 13 -9.5 22.5t-22.5 9.5zM928 404h-832q-13 0 -22.5 -9.5t-9.5 -22.5
t9.5 -22.5t22.5 -9.5h832q13 0 22.5 9.5t9.5 22.5t-9.5 22.5t-22.5 9.5z" />
    <glyph glyph-name="uniE60A" unicode="&#xe60a;" 
d="M861 186l147 388q3 10 -3 18.5t-17 8.5h-489q-9 0 -15 -6t-6 -14.5t6 -14.5t15 -6h460l-131 -346h-370l-140 562v1q-13 45 -36 65q-27 25 -76 25h-136q-1 0 -2 -1q-16 0 -27.5 -12t-11.5 -28q0 -17 12 -29t29 -12t29 12t12 29h95q33 0 49 -14q14 -13 24 -47l163 -658
q6 -22 10 -34t16 -28t29 -25q-19 -22 -19 -51q0 -34 24 -58t58 -24t58 24t24 58q0 22 -11 40h123q-10 -18 -10 -40q0 -34 23.5 -58t57.5 -24t58 24t24 58t-24 57.5t-58 23.5h-4v0h-2h-265q-20 0 -32.5 3.5t-20 14t-11 19.5t-8.5 30l-14 56h374q14 0 19 13zM866 -31
q0 -17 -12 -29t-29 -12t-29 12t-12 29t12 28.5t29 11.5t29 -11.5t12 -28.5zM560 9q17 0 29 -11.5t12 -28.5t-12 -29t-29 -12t-29 12t-12 29t12 28.5t29 11.5z" />
    <glyph glyph-name="uniE60B" unicode="&#xe60b;" 
d="M352 53q-27 0 -45.5 -19t-18.5 -45.5t18.5 -45t45 -18.5t45.5 18.5t19 45t-19 45.5t-45 19v0zM799 53q-26 0 -45 -19t-19 -45.5t19 -45t45.5 -18.5t45 18.5t18.5 45t-18.5 45.5t-45.5 19v0zM863 85h-520q-34 0 -61 24t-31 59l-54 381l-31 179q-2 11 -11 19.5t-19 8.5h-41
q-13 0 -22.5 9.5t-9.5 22.5t9.5 22.5t22.5 9.5h41q35 0 62 -24t31 -59l31 -178l54 -383q2 -11 10.5 -19.5t18.5 -8.5h520q13 0 22.5 -9t9.5 -22.5t-9.5 -22.5t-22.5 -9zM383 212q-12 0 -21.5 9t-10.5 21q-1 13 8 23t22 11l434 32q11 0 20 8t11 19l50 288q2 18 -8 30
q-6 7 -15 7h-554q-13 0 -22.5 9.5t-9.5 22.5t9.5 22.5t22.5 9.5h554q38 0 63 -29q29 -33 24 -81l-51 -288q-4 -34 -30.5 -58t-61.5 -24l-431 -31q-2 -1 -3 -1zM383 212z" />
    <glyph glyph-name="uniE60C" unicode="&#xe60c;" 
d="M342 835h-245q-9 0 -15 -6t-6 -15v-245q0 -9 6 -15t15 -6h245q8 0 14 6t6 15v245q0 9 -6 15t-14 6zM321 589h-204v205h204v-205zM927 835h-245q-8 0 -14 -6t-6 -15v-245q0 -9 6 -15t14 -6h245q9 0 15 6t6 15v245q0 9 -6 15t-15 6zM907 589h-204v205h204v-205zM927 246
h-245q-8 0 -14 -6t-6 -15v-265q0 -9 6 -15t14 -6h245q9 0 15 6t6 15v265q0 9 -6 15t-15 6zM907 -20h-204v225h204v-225zM948 456.5q0 -8.5 -6 -14.5t-15 -6h-830q-9 0 -15 6t-6 14.5t6 14.5t15 6h830q9 0 15 -6t6 -14.5zM482 811v-242q0 -9 -6 -15t-14.5 -6t-14.5 6t-6 15
v242q0 8 6 14t14.5 6t14.5 -6t6 -14zM589 811v-242q0 -9 -6 -15t-14.5 -6t-14.5 6t-6 15v242q0 8 6 14t14.5 6t14.5 -6t6 -14zM426 225v-268q0 -8 -6 -14t-14.5 -6t-14.5 6t-6 14v268q0 9 6 15t14.5 6t14.5 -6t6 -15zM557 352v-395q0 -8 -6 -14t-14.5 -6t-14.5 6t-6 14v395
q0 8 6 14t14.5 6t14.5 -6t6 -14zM166 352v-395q0 -8 -6 -14t-14.5 -6t-14.5 6t-6 14v395q0 8 6 14t14.5 6t14.5 -6t6 -14zM296 225v-268q0 -8 -6 -14t-14.5 -6t-14.5 6t-6 14v268q0 9 6 15t14.5 6t14.5 -6t6 -15zM948 351.5q0 -8.5 -6 -14.5t-15 -6h-245q-8 0 -14 6t-6 14.5
t6 14.5t14 6h245q9 0 15 -6t6 -14.5zM431 351.5q0 -8.5 -6 -14.5t-15 -6h-137q-8 0 -14 6t-6 14.5t6 14.5t14 6h137q9 0 15 -6t6 -14.5z" />
    <glyph glyph-name="uniE60D" unicode="&#xe60d;" 
d="M971 768h-918q-9 0 -15 -6t-6 -15v-612q0 -8 6 -14t15 -6h918q9 0 15 6t6 14v612q0 9 -6 15t-15 6zM951 156h-878v571h878v-571zM788 53.5q0 -8.5 -6 -14.5t-15 -6h-510q-9 0 -15 6t-6 14.5t6 14.5t15 6h510q9 0 15 -6t6 -14.5z" />
    <glyph glyph-name="uniE60E" unicode="&#xe60e;" 
d="M629 481l-163 164q-6 6 -14.5 6t-14.5 -6t-6 -14.5t6 -14.5l129 -129h-176v225q0 8 -6 14t-14 6h-348q-9 0 -15 -6t-6 -14v-818q0 -9 6 -15t15 -6h593q8 0 14 6t6 15v572q0 9 -6 15zM594 -86h-552v777h307v-225q0 -8 6 -14t15 -6h224v-532zM1024 630v-573q0 -8 -6 -14
t-14 -6h-308q-9 0 -15 6t-6 14.5t6 14.5t15 6h287v532h-225q-8 0 -14 6t-6 14v225h-307v-76q0 -8 -6 -14t-14.5 -6t-14.5 6t-6 14v97q0 8 6 14t14 6h348q9 0 15 -6t6 -14v-225h175l-129 128q-6 6 -6 14.5t6 14.5t14.5 6t14.5 -6l164 -163q6 -6 6 -15z" />
    <glyph glyph-name="uniE60F" unicode="&#xe60f;" 
d="M854 610l-34 -664q-2 -21 -18 -36t-37 -15h-475q-22 0 -38 15t-17 36v1l-35 663q-1 9 5 15t14.5 6.5t14.5 -5t7 -14.5l34 -663q1 -5 5.5 -9t9.5 -4h475q5 0 9 4t5 9l34 663q1 9 7.5 14.5t14.5 5t14 -6.5t5 -15zM936 754.5q0 -8.5 -6 -14.5t-14 -6h-266q-9 0 -15 6t-6 14
v62q0 8 -6 14t-14 6h-164q-8 0 -14 -6t-6 -14v-62q0 -8 -6 -14t-15 -6h-265q-9 0 -15 6t-6 14.5t6 14.5t15 6h245v41q0 25 18 43t43 18h164q25 0 43 -18t18 -43v-41h246q8 0 14 -6t6 -14.5zM640 591v-573q0 -8 -6 -14t-14.5 -6t-14.5 6t-6 14v573q0 8 6 14t14.5 6t14.5 -6
t6 -14zM456 591v-573q0 -8 -6 -14t-14.5 -6t-14.5 6t-6 14v573q0 8 6 14t14.5 6t14.5 -6t6 -14z" />
    <glyph glyph-name="uniE610" unicode="&#xe610;" 
d="M948 -19l-207 207q91 108 91 248q0 104 -51.5 192.5t-140 140t-192.5 51.5t-192.5 -51.5t-140 -140t-51.5 -192.5t51.5 -192.5t140 -140t192.5 -51.5q140 0 248 91l207 -207q10 -11 24 -11.5t23.5 9t9 23.5t-11.5 24zM448 116q-133 0 -226.5 93.5t-93.5 226.5t93.5 226.5
t226.5 93.5t226.5 -93.5t93.5 -226.5t-93.5 -226.5t-226.5 -93.5z" />
    <glyph glyph-name="uniE611" unicode="&#xe611;" 
d="M942 577.5q-9 9.5 -21.5 10t-21.5 -7.5l-370 -370q-11 -12 -17 -12t-18 12l-370 370q-8 8 -21 7.5t-22 -10t-9.5 -22t8.5 -21.5l411 -411q7 -7 18 -8h5q12 1 19 8l411 411q8 9 7.5 21.5t-9.5 22z" />
    <glyph glyph-name="uniE612" unicode="&#xe612;" 
d="M999 391q-54 63 -142 126q-76 55 -153 87q-98 40 -191.5 40t-190.5 -40q-77 -32 -154 -87q-87 -63 -141 -126q-12 -13 0 -26q54 -63 141 -126q77 -55 154 -87q97 -40 190.5 -40t191.5 40q77 32 153 87q88 63 142 126q11 13 0 26zM359 575q79 28 154 28t153 -28
q51 -58 51 -136q0 -84 -59.5 -144t-144.5 -60t-145 60t-60 144q0 78 51 136zM833 272q-72 -52 -145 -82q-90 -37 -175 -37t-175 37q-73 29 -145 81q-68 49 -123 107q55 58 123 107q49 35 98 60q-24 -50 -24 -106q0 -101 72 -173t174 -72t173.5 72t71.5 173q0 56 -24 106
q50 -25 99 -60q67 -49 122 -107q-54 -58 -122 -106zM615 439.5q0 -42.5 -30 -72.5t-72.5 -30t-72 30t-29.5 72.5t29.5 72.5t72 30t72.5 -30t30 -72.5z" />
    <glyph glyph-name="uniE613" unicode="&#xe613;" 
d="M877 404zM896 448q0 104 -51.5 192.5t-140 140t-192.5 51.5t-192.5 -51.5t-140 -140t-51.5 -192.5q0 -77 29 -146.5t81 -122.5l1 -1l3 -3l217 -217q22 -22 53 -22t53 22l217 217q0 1 1 1l2 2l1 1q52 53 81 122.5t29 146.5zM565 49q-16 -17 -22.5 -23.5t-17 -12t-14 -5.5
t-13.5 5.5t-16.5 12t-22.5 23.5l-173 174q-94 93 -94 225q0 87 43 160.5t116.5 116.5t160.5 43t160.5 -43t116.5 -116.5t43 -160.5q0 -132 -94 -225zM512 640q-80 0 -136 -56t-56 -136t56 -136t136 -56t136 56t56 136t-56 136t-136 56zM512 320q-53 0 -90.5 37.5t-37.5 90.5
t37.5 90.5t90.5 37.5t90.5 -37.5t37.5 -90.5t-37.5 -90.5t-90.5 -37.5z" />
    <glyph glyph-name="uniE614" unicode="&#xe614;" 
d="M1023 373q0 -75 -53.5 -128t-128.5 -53h-185q-9 0 -15 6t-6 14.5t6 14.5t15 6h185q58 0 99.5 41t41.5 99t-41 99.5t-99 41.5h-1q-10 0 -16 7t-5 16q2 16 2 28q0 95 -67 161.5t-161 66.5q-72 0 -131 -42q-57 -41 -82 -107q-4 -10 -15 -12.5t-19 5.5q-29 30 -71.5 30
t-72.5 -30t-30 -72v-2v-3q1 -16 -15 -20q-50 -14 -82 -56t-32 -95q0 -65 45.5 -110.5t110.5 -45.5h170q8 0 14 -6t6 -14.5t-6 -14.5t-14 -6h-170q-82 0 -139.5 57.5t-57.5 139.5q0 67 41 121q35 45 88 64q4 56 45.5 95t97.5 39q43 0 79 -24q30 61 85 100q70 50 155 50
q111 0 190 -79t79 -190q0 -5 -1 -11q68 -8 114.5 -59.5t46.5 -121.5zM629 75l-102 -102q-6 -6 -14.5 -6t-14.5 6l-102 102q-6 6 -6 14.5t6 14.5t14.5 6t14.5 -6l67 -67v359q0 8 6 14t14.5 6t14.5 -6t6 -14v-359l67 67q6 6 14.5 6t14.5 -6t6 -14.5t-6 -14.5z" />
    <glyph glyph-name="uniE615" unicode="&#xe615;" 
d="M877 404zM512 -64q-185 0 -316.5 131.5t-131.5 316.5t131.5 316.5t316.5 131.5t316.5 -131.5t131.5 -316.5t-131.5 -316.5t-316.5 -131.5zM512 768q-104 0 -192.5 -51.5t-140 -140t-51.5 -192.5t51.5 -192.5t140 -140t192.5 -51.5t192.5 51.5t140 140t51.5 192.5
t-51.5 192.5t-140 140t-192.5 51.5zM727 503q-9 9 -22.5 9t-22.5 -9l-234 -236l-103 106q-9 9 -22.5 9.5t-23 -9t-9.5 -22.5t9 -23l126 -129h1v-1q1 -1 7 -4q0 -1 1 -1.5t2 -1.5q6 -2 12 -2t12 2q1 1 2 1.5t2 1.5q5 3 7 4v1l256 259q10 9 9.5 22t-9.5 23zM727 503z" />
    <glyph glyph-name="uniE616" unicode="&#xe616;" 
d="M964 576q-37 88 -104.5 155.5t-155.5 104.5q-91 39 -191 39t-191 -39q-88 -37 -155.5 -104.5t-104.5 -155.5q-39 -91 -39 -191t39 -191q37 -87 104.5 -155t155.5 -105q91 -39 191 -39t191 39q88 37 155.5 105t104.5 155q39 91 39 191t-39 191zM927 210
q-34 -80 -96.5 -142t-142.5 -96q-84 -36 -175 -36t-175 36q-80 34 -142.5 96t-96.5 142q-35 84 -35 175t35 175q35 80 97 142.5t142 96.5q84 35 175 35t175 -35q80 -34 142.5 -96.5t96.5 -142.5q35 -84 35 -175t-35 -175zM795 251q-27 -38 -76 -76q-42 -33 -88 -52
q-58 -24 -118 -24t-118 24q-46 19 -88 52q-49 38 -76 76q-5 7 -3.5 15t8.5 13t15 3.5t13 -7.5q5 -8 18 -22q24 -25 51 -46q38 -30 78 -46q50 -21 102 -21t102 21q40 16 78 46q43 33 69 68q5 6 13 7.5t15 -3.5t8.5 -13t-3.5 -15zM737 446.5q0 -25.5 -17.5 -43.5t-43 -18
t-43.5 18t-18 43.5t18 43.5t43.5 18t43 -18t17.5 -43.5zM411 446.5q0 -25.5 -18 -43.5t-43.5 -18t-43 18t-17.5 43.5t17.5 43.5t43 18t43.5 -18t18 -43.5z" />
    <glyph glyph-name="uniE617" unicode="&#xe617;" 
d="M805 747q-54 21 -104.5 20.5t-82 -13t-60 -34t-36.5 -31.5t-13 -16q-5 6 -13.5 16t-36.5 31.5t-59.5 34t-82.5 13t-104 -20.5q-42 -16 -75.5 -48.5t-52 -79t-22 -101.5t19.5 -119t68 -128t128 -132t195 -129q19 -10 35 -11v0v0q16 1 35 11q112 61 195 129t128 132
t67.5 128t19.5 119t-22 101.5t-52 79t-75 48.5zM539 80q-16 -9 -30 -9t-30 9q-99 57 -171.5 117t-111 114.5t-57 107t-14 96t22.5 79.5t47.5 60.5t65.5 35.5q52 16 95 3t68.5 -36t48.5 -44.5t36 -21.5v0v0q12 0 35.5 21.5t49 44.5t68.5 36t94 -3q37 -11 67 -35t48 -60
t23 -79.5t-13.5 -96t-57 -106.5t-111.5 -115t-173 -118z" />
    <glyph glyph-name="uniE618" unicode="&#xe618;" 
d="M877 362zM856 271l-320 -327q-8 -7 -19 -9h-4h-3q-12 2 -19 9l-321 327q-9 9 -9 22t9 22.5t22 9.5t22 -9l268 -273v757q0 13 9 22t22 9h1q13 0 22 -9t9 -22v-757l267 273q10 9 22.5 9t21.5 -9.5t9 -22.5t-9 -22z" />
    <glyph glyph-name="uniE619" unicode="&#xe619;" 
d="M970 470l-241 -196l80 -300q2 -9 -2.5 -16t-12.5 -9q-2 -1 -5 -1q-16 0 -20 15l-83 313q-4 13 7 22l210 170l-271 15q-13 1 -18 13l-97 253l-98 -253q-4 -12 -18 -13l-270 -15l210 -170q10 -9 7 -22l-70 -262l228 148q11 7 22 0l113 -73q7 -5 8.5 -13t-3 -15.5t-13 -9
t-15.5 3.5l-101 65l-261 -169q-12 -7 -23.5 1t-7.5 22l80 300l-241 196q-11 9 -7 22.5t18 13.5l311 17l112 290q5 13 19 13t19 -13l112 -290l310 -17q14 0 18.5 -13.5t-6.5 -22.5z" />
    <glyph glyph-name="uniE61B" unicode="&#xe61b;" 
d="M324 575h376q55 2 93.5 39t38.5 89q0 53 -40.5 90.5t-97.5 37.5q-66 0 -103 -44l-79 -94l-79 94q-38 44 -103 44q-57 0 -97.5 -37.5t-40.5 -90.5q0 -52 38.5 -89t93.5 -39zM652 740q16 18 42 18q25 0 42 -16t17 -39t-17 -39t-42 -16h-119zM330 758q26 0 42 -18l78 -92
h-120q-25 0 -42 16t-17 39t17 39t42 16zM438 544h-252q-24 0 -41 -18.5t-17 -45.5v-160q0 -27 17 -45.5t41 -18.5h251q25 0 42 18.5t17 45.5v160q0 27 -17 45.5t-41 18.5zM838 544h-251q-25 0 -42 -18.5t-17 -45.5v-160q0 -27 17 -45.5t42 -18.5h251q24 0 41 18.5t17 45.5
v160q0 27 -17 45.5t-41 18.5zM438 224h-252q-24 0 -41 -18.5t-17 -45.5v-160q0 -27 17 -45.5t41 -18.5h251q25 0 42 18.5t17 45.5v160q0 27 -17 45.5t-41 18.5zM838 224h-251q-25 0 -42 -18.5t-17 -45.5v-160q0 -27 17 -45.5t42 -18.5h251q24 0 41 18.5t17 45.5v160
q0 27 -17 45.5t-41 18.5z" />
    <glyph glyph-name="uniE61C" unicode="&#xe61c;" 
d="M952 408q-40 63 -110 108q-71 45 -151 61l-233 233q-6 6 -14.5 6t-14.5 -6l-14 -15q-133 -2 -215 -38q-45 -20 -69 -49q-27 -31 -27 -70q0 -56 44 -97l6 -6l-87 -88q-45 -44 -45 -107.5t45 -108.5l228 -228q45 -44 108 -44t108 44l235 236q6 6 6 14.5t-6 14.5t-14.5 6
t-14.5 -6l-235 -236q-33 -32 -79 -32t-79 32l-228 228q-33 33 -33 79.5t33 78.5l93 93q26 -15 61 -27q92 -31 226 -35q12 -21 36 -21q17 0 29 12t12 29t-12 29t-29 12q-23 0 -35 -20q-127 4 -214 33q-25 8 -44 18l213 213l12 12l3 -3l383 -383l-26 -25q-10 -11 -4.5 -23
t17.5 -12q13 -4 26 -24q31 -50 31 -164q0 -49 12 -81q16 -39 46 -39q35 0 53 59q17 56 17 154q0 104 -50 183zM183 564q-38 31 -38 74q0 46 61.5 76.5t165.5 37.5zM948 93q-7 -29 -16 -39q-17 18 -17 78q0 134 -42 192q-9 13 -20 22l20 20q6 6 6 14.5t-6 14.5l-121 121
q38 -15 69 -36q62 -39 96 -94q44 -69 44 -161q0 -83 -13 -132z" />
    <glyph glyph-name="uniE61D" unicode="&#xe61d;" 
d="M820 236q-8 0 -14 6l-279 274l-278 -274q-7 -6 -15 -6t-14 6t-6 14.5t6 14.5l293 288q6 6 14.5 6t13.5 -6l293 -288q6 -6 6.5 -14.5t-5.5 -14.5t-15 -6z" />
    <glyph glyph-name="uniE61E" unicode="&#xe61e;" 
d="M877 404zM512 -31q-16 0 -26 13l-65 91q-156 27 -256.5 133t-100.5 243q0 104 60 192.5t163.5 140t224.5 51.5t224.5 -51.5t163.5 -140t60 -192.5q0 -138 -100.5 -243.5t-256.5 -132.5l-65 -91q-10 -13 -26 -13zM512 769q-104 0 -192.5 -43t-140 -117t-51.5 -160
q0 -117 89.5 -206t226.5 -109q13 -2 21 -13l47 -65l47 65q7 11 21 13q137 20 226.5 109t89.5 206q0 86 -51.5 160t-140 117t-192.5 43zM288 385q-26 0 -45 18.5t-19 45t19 45.5t45.5 19t45 -19t18.5 -45.5t-18.5 -45t-45.5 -18.5zM288 449v-32v32zM736 385q-26 0 -45 18.5
t-19 45t19 45.5t45.5 19t45 -19t18.5 -45.5t-18.5 -45t-45.5 -18.5zM736 449v-32v32zM512 385q-26 0 -45 18.5t-19 45t19 45.5t45.5 19t45 -19t18.5 -45.5t-18.5 -45t-45.5 -18.5zM512 449v-32v32zM512 449z" />
    <glyph glyph-name="uniE61F" unicode="&#xe61f;" 
d="M961 624v61q0 25 -18 43t-43 18h-530q-3 2 -8 8q-5 7 -16 23q-10 17 -16.5 25.5t-18 17t-23.5 8.5h-225q-25 0 -43 -18t-18 -43v-694v-1v-2v0v-2q1 -1 1 -2v-1h1v-1q0 -1 1 -1v-1q1 -2 3 -4h2v-1l1 -1h1q0 -1 1 -1l1 -1v0h1q1 0 1.5 -0.5t1.5 -0.5t2 -0.5t2 -0.5h2l1 1h1
h1q1 0 2 1h1h1h1q0 1 1 1v1q1 0 2 1q1 0 1 1l2 2l1 1q0 1 1 1v2h1v1q0 1 1 1v1v2l103 492v2q0 8 6 14t14 6h796q8 0 14 -5.5t6 -13.5l-101 -548v-1q-1 0 -1 -1v0v-1v-1q0 -9 -6 -15t-14 -6h-596q-9 0 -15 -6t-6 -14.5t6 -14.5t15 -6h596q25 0 42.5 17.5t18.5 42.5l102 549v2
v2q0 25 -18 43t-43 18zM920 624h-755q-25 0 -42.5 -17t-18.5 -42l-61 -294v496q0 8 6 14t14 6h224q3 -1 9 -8q5 -7 16 -24q10 -16 16 -24.5t17.5 -17t23.5 -8.5h531q8 0 14 -6t6 -14v-61zM16 53l-1 1q1 0 1 -1z" />
    <glyph glyph-name="uniE620" unicode="&#xe620;" 
d="M840 570l-38 -6q-15 74 -34 99q-15 21 -37 28t-86 7h-91v-555q0 -25 1 -38.5t5.5 -26.5t11.5 -19t22 -11t33 -6.5t49 -3.5v-35h-326v35q30 2 47 3.5t32.5 6.5t22.5 11t12.5 18t6.5 27t1 39v555h-86q-65 0 -90.5 -7t-36.5 -27q-14 -21 -36 -100h-37q1 20 6.5 89t6.5 105
h25q5 -7 9.5 -11.5t12 -6t10.5 -2t15.5 0t16.5 0.5h458q20 0 26 0.5t13.5 4.5t15.5 14h27q0 -70 12 -188z" />
    <glyph glyph-name="uniE621" unicode="&#xe621;" 
d="M877 404zM908 664q-14 0 -24 10l-99 99q-10 10 -10 24t10 23.5t23.5 9.5t23.5 -10l99 -99q10 -10 10 -23.5t-10 -23.5t-23 -10zM114 666q-13 0 -23 10t-10 23.5t10 23.5l99 99q10 10 23.5 10t23.5 -9.5t10 -23.5t-10 -24l-99 -99q-10 -10 -24 -10zM732 542q10 9 10 23
t-9.5 23.5t-23.5 9.5t-23 -10l-133 -132q-21 10 -42.5 10t-42.5 -10l-100 99q-9 10 -23 10t-23.5 -9.5t-9.5 -23.5t9 -23l100 -100q-10 -21 -10 -43q0 -41 29 -70t70 -29t70.5 29t29.5 70q0 22 -10 43zM510 333q-13 0 -23 10t-10 23.5t10 23.5t23.5 10t23.5 -10t10 -23.5
t-10 -23.5t-24 -10zM819 67q57 59 89.5 136.5t32.5 162.5q0 117 -58 216t-157 157t-215.5 58t-216 -58t-157 -157t-57.5 -216q0 -86 32.5 -164t91.5 -137l-51 -77q-7 -11 -4.5 -24.5t13.5 -20.5q9 -6 19 -6q18 0 27 15l46 69q115 -85 256 -85q143 0 258 87l47 -69
q10 -15 28 -15q10 0 18 6q12 8 14.5 21.5t-5.5 24.5zM146 366q0 99 49 183t133 133t182.5 49t182.5 -49t133 -133t49 -182.5t-49 -182.5t-133 -133t-182.5 -49t-182.5 49t-133 133t-49 182zM146 366z" />
    <glyph glyph-name="uniE627" unicode="&#xe627;" 
d="M544 624v-53q0 -8 -7 -8h-50q-7 0 -7 8v53q0 8 7 8h50q7 0 7 -8zM543 477v-337q0 -8 -8 -8h-47q-7 0 -7 8v337q0 7 7 7h47q8 0 8 -7zM1024 384q0 -139 -70 -259q-5 -7 -13 -9.5t-15.5 2t-9.5 12.5t2 16q65 110 65 238q0 96 -37 183q-36 85 -101 150t-150 101
q-87 37 -183 37t-183 -37q-85 -36 -150 -101t-101 -150q-37 -87 -37 -183t37 -183q36 -85 101 -150t150 -101q87 -37 183 -37q88 0 170.5 32t147.5 91q6 6 14.5 5.5t14 -6.5t5.5 -14.5t-7 -14.5q-71 -65 -160 -99.5t-185 -34.5q-104 0 -199 40q-92 39 -163 110t-110 163
q-40 95 -40 199t40 199q39 92 110 163t163 110q95 40 199 40t199 -40q92 -39 163 -110t110 -163q40 -95 40 -199z" />
    <glyph glyph-name="uniE628" unicode="&#xe628;" 
d="M888 630h-752q-30 0 -51 -21t-21 -51v-349q0 -30 21 -51t51 -21h752q30 0 51 21t21 51v349q0 30 -21 51t-51 21zM323 270h-51l-98 189v-188h-31v224h46l100 -194h3v195h31v-226zM527 399v-30l-125 -1v-6q0 -60 37 -60h88v-30h-88q-30 0 -48 21q-20 23 -20 69v53
q0 36 20 56t48 25h2q13 2 86 1v-31q-69 1 -83 0q-9 -2 -17 -5.5t-16.5 -15.5t-8.5 -30v-16h125zM816 270h-46l-46 180l-50 -180h-48l-65 226h33l58 -185l2 1l52 185h38l50 -195l60 194h32zM816 270z" />
    <glyph glyph-name="uniE629" unicode="&#xe629;" 
d="M864.5 640q-13.5 0 -22.5 -9t-9 -23v-577q0 -13 -9.5 -22.5t-22.5 -9.5h-578q-13 0 -22.5 9.5t-9.5 22.5v701l298 -178l4 -2q7 -5 16 -6h1h1h1v0h2h1q9 1 16 6l4 2l300 179l22 12q23 14 28 18t3 9q-7 28 -31 44.5t-56 16.5h-1h-86h-491q-39 0 -67.5 -28.5t-28.5 -67.5
v-706q0 -40 28.5 -68t67.5 -28h578q39 0 67.5 28t28.5 68v577q0 14 -9.5 23t-23 9zM773 769l-261 -157l-261 157h463h59zM641 289q13 0 22.5 9.5t9.5 22.5t-9.5 22.5t-22.5 9.5h-83l72 72q9 9 9 22.5t-9 22.5t-22.5 9t-22.5 -9l-73 -73l-73 73q-10 9 -23 9t-22.5 -9
t-9.5 -22.5t9 -22.5l72 -72h-81q-13 0 -22.5 -9.5t-9.5 -22.5t9.5 -22.5t22.5 -9.5h99v-64h-99q-13 0 -22.5 -9.5t-9.5 -22.5t9.5 -22.5t22.5 -9.5h99v-65q0 -13 9 -22.5t22.5 -9.5t23 9.5t9.5 22.5v65h94q13 0 22.5 9.5t9.5 22.5t-9.5 22.5t-22.5 9.5h-94v64h94z" />
    <glyph glyph-name="uniE62A" unicode="&#xe62a;" 
d="M960 522v95q0 26 -18.5 45t-45.5 19h-768q-27 0 -45.5 -19t-18.5 -45v-95q13 0 22.5 -9.5t9.5 -23t-9.5 -22.5t-22.5 -9v-144q13 0 22.5 -9.5t9.5 -23t-9.5 -22.5t-22.5 -9v-98q0 -26 18.5 -44.5t45.5 -18.5h768q27 0 45.5 18.5t18.5 44.5v98q-13 0 -22.5 9t-9.5 22.5
t9.5 23t22.5 9.5v144q-13 0 -22.5 9t-9.5 22.5t9.5 23t22.5 9.5zM896 559q-32 -28 -32 -70.5t32 -71.5v-62q-32 -29 -32 -71.5t32 -70.5v-27q0 -14 -9.5 -23t-22.5 -9h-704q-13 0 -22.5 9t-9.5 23v25q32 29 32 71t-32 71v66q32 28 32 70.5t-32 71.5v25q0 13 9.5 22.5
t22.5 9.5h704q13 0 22.5 -9.5t9.5 -22.5v-27zM641 401q13 0 22.5 9.5t9.5 22.5t-9.5 22.5t-22.5 9.5h-83l72 72q9 9 9 22.5t-9 22.5t-22.5 9t-22.5 -9l-73 -73l-73 73q-10 9 -23 9t-22.5 -9t-9.5 -22.5t9 -22.5l72 -72h-81q-13 0 -22.5 -9.5t-9.5 -22.5t9.5 -22.5t22.5 -9.5
h99v-64h-99q-13 0 -22.5 -9.5t-9.5 -22.5t9.5 -22.5t22.5 -9.5h99v-65q0 -13 9 -22.5t22.5 -9.5t23 9.5t9.5 22.5v65h94q13 0 22.5 9.5t9.5 22.5t-9.5 22.5t-22.5 9.5h-94v64h94z" />
    <glyph glyph-name="uniE62B" unicode="&#xe62b;" 
d="M394 400.5q0 -8.5 -6 -14.5t-15 -6h-103q-9 0 -15 6t-6 14.5t6 14.5t15 6h103q9 0 15 -6t6 -14.5zM805 400.5q0 -8.5 -6 -14.5t-14 -6h-104q-8 0 -14 6t-6 14.5t6 14.5t14 6h104q8 0 14 -6t6 -14.5zM548 658v-104q0 -8 -6 -14t-14.5 -6t-14.5 6t-6 14v104q0 9 6 15
t14.5 6t14.5 -6t6 -15zM548 247v-104q0 -9 -6 -15t-14.5 -6t-14.5 6t-6 15v104q0 8 6 14t14.5 6t14.5 -6t6 -14zM412 467q-6 -10 -18 -10q-6 0 -10 3l-90 52q-8 4 -10 12t2.5 15.5t12.5 9.5t15 -2l90 -52q7 -4 9.5 -12t-1.5 -16zM768 261q-6 -10 -18 -10q-5 0 -10 3l-90 52
q-7 4 -9.5 12t2 15.5t12.5 9.5t16 -2l89 -52q8 -4 10 -12t-2 -16zM674 613l-52 -89q-6 -11 -18 -11q-5 0 -10 3q-7 4 -9.5 12.5t1.5 15.5l52 90q5 7 13 9t15.5 -2t9.5 -12t-2 -16zM468 257l-52 -90q-6 -10 -18 -10q-5 0 -10 3q-7 4 -9.5 12t2.5 16l51 89q5 8 13 10t15.5 -2
t9.5 -12.5t-2 -15.5zM460 516q-4 -3 -10 -3q-12 0 -18 11l-51 89q-5 8 -2.5 16t10 12.5t15.5 2t12 -9.5l52 -90q4 -7 2 -15.5t-10 -12.5zM666 160q-5 -3 -10 -3q-12 0 -18 10l-52 90q-4 7 -2 15.5t9.5 12.5t16 2t12.5 -10l52 -89q4 -8 1.5 -16t-9.5 -12zM760 511l-89 -51
q-5 -3 -11 -3q-11 0 -17 10q-4 8 -2 16t9 12l90 52q7 4 15.5 2t12.5 -9.5t2 -15.5t-10 -13zM404 306l-90 -52q-5 -3 -10 -3q-12 0 -18 11q-4 7 -2 15t10 12l90 52q7 5 15 2.5t12.5 -10t2 -15.5t-9.5 -12z" />
    <glyph glyph-name="uniE62C" unicode="&#xe62c;" 
d="M510 -43q-26 0 -71 39l-190 157h-85q-42 0 -71 29t-29 71v263q0 41 29 70t71 29h85l190 158q44 38 71 38q21 0 36.5 -15t15.5 -47v-730q0 -32 -15.5 -47t-36.5 -15zM164 549q-14 0 -24 -10t-10 -23v-263q0 -14 10 -24t24 -10h99q14 0 24 -9l199 -167q5 -6 9 -9v701l-9 -9
l-199 -167q-10 -10 -24 -10h-99zM678 158q-11 0 -20 6q-11 8 -13 21.5t6 24.5l13 18q22 31 32.5 47.5t21 46.5t10.5 62q0 34 -9.5 62.5t-19 44t-31.5 44.5q-10 13 -17 23q-8 11 -6 24.5t13 22t24.5 6t22.5 -13.5q5 -7 16 -22q24 -32 36 -51.5t24.5 -57.5t12.5 -82
q0 -42 -13.5 -81.5t-26 -60t-37.5 -53.5l-13 -17q-9 -14 -26 -14zM790 45q-12 0 -21 8q-11 9 -12 23t8 24q61 69 95 135.5t34 149t-34 149t-95 134.5q-9 11 -8 24.5t11.5 22.5t24 8t22.5 -11q67 -75 106 -153t39 -175t-39.5 -174.5t-105.5 -153.5q-10 -11 -25 -11zM790 45z
" />
    <glyph glyph-name="uniE62D" unicode="&#xe62d;" 
d="M894 517h-122v102q0 101 -71.5 173t-173 72t-173.5 -72t-72 -173v-102h-122q-9 0 -15 -6t-6 -15v-571q0 -9 6 -15t15 -6h734q9 0 15 6t6 15v571q0 9 -6 15t-15 6zM323 619q0 84 60 144t144.5 60t144 -60t59.5 -144v-102h-408v102zM874 -55h-694v531h694v-531zM588 251
q0 -27 -20 -45v-57q0 -17 -12 -28.5t-29 -11.5t-29 11.5t-12 28.5v57q-20 18 -20 45q0 26 18 44t43 18t43 -18t18 -44z" />
    <glyph glyph-name="uniE62E" unicode="&#xe62e;" 
d="M672 511q13 0 22.5 -9.5t9.5 -22.5t-9 -23l-160 -161q-15 -15 -35 -7q-1 1 -2 1q-5 3 -8 6v0l-161 160q-9 9 -9 22.5t9.5 23t22.5 9.5z" />
    <glyph glyph-name="uniE62F" unicode="&#xe62f;" 
d="M291 547h131v32h-131v-32zM291 621h131v29h-131v-29zM291 477q90 6 131 6v23h-131v-29zM816 896h-608q-86 0 -147 -61t-61 -147v-605q0 -88 60.5 -149.5t147.5 -61.5h605q86 0 147 61t61 147v608q2 86 -58 147t-147 61zM160 48q-3 9 -10 21t-13 19l-6 8q162 27 258 114
l14 14l58 -61q-46 -43 -150 -79t-151 -36zM746 438q25 -60 51 -89q-78 -16 -199 -26q33 -41 84 -83q24 9 46.5 23t38 28t27 26.5t17 20t5.5 8.5l102 -61q-9 -8 -24.5 -20.5t-58.5 -36.5t-80 -33q80 -42 167 -61q-71 -67 -90 -89q-156 62 -243 163v-166h-125v272
q-7 0 -17.5 -2t-14.5 -2l32 -32q-48 -43 -153 -80.5t-151 -37.5q-3 9 -10 21t-13 19l-6 8q142 23 237 96q-92 -6 -160 -10l-13 61q81 0 231 16v45q-176 -16 -269 -48l-35 90q51 6 80 9v183h-55v64h435v-32q124 28 199 25q98 0 128 -54q22 -38 -3 -80q-28 -34 -55 -55
q42 -28 83 -64l-92 -73q-39 56 -71 83q-8 -4 -34 -20t-43 -25q8 3 26 9.5t26 9.5zM646 621q58 -23 125 -58q31 20 42 35q16 21 6 36q-4 11 -16.5 15t-37.5 7h-3q-31 0 -60 -5t-49 -12t-35 -14t-24 -12l-8 -5l-23 45h-48v-163h58v-58q-39 0 -58 -3v-39q83 13 119 20l-45 70
q17 6 52.5 20.5t52.5 21.5q-22 15 -45.5 27t-35.5 16l-11 5z" />
    <glyph glyph-name="uniE631" unicode="&#xe631;" 
d="M997 441.5q0 -83.5 -38 -160.5q-36 -73 -101 -129t-149 -87q-87 -32 -182 -32q-8 0 -14 6t-6 14.5t6 14.5t14 6q88 0 168 29q77 28 136 80q60 52 92.5 118.5t32.5 139.5t-32.5 140t-92.5 119q-59 51 -136 79q-80 30 -168 30t-168 -30q-77 -28 -136 -79q-60 -52 -92 -119
t-32 -140q0 -89 47 -167q46 -77 127 -128q9 -6 9 -17q0 -58 -42 -133q51 8 98 40q32 22 51 45q5 7 13.5 7.5t15 -4.5t7.5 -13.5t-4 -15.5q-21 -26 -59 -52q-75 -52 -160 -52h-1q-13 1 -18.5 12t1.5 21q35 50 50 102q5 17 6 32q-82 55 -129 135q-53 88 -53 188q0 84 37 160
q36 74 101 130t149 87q87 31 182 31t182 -31q84 -31 149 -87t101 -130q38 -76 38 -159.5z" />
    <glyph glyph-name="uniE637" unicode="&#xe637;" horiz-adv-x="1025" 
d="M540 863.5q-12 5.5 -22 -3.5l-316 -280h-182q-8 0 -14 -6t-6 -15v-327q0 -8 6 -14t14 -6h176q9 0 15 6t6 14v308l6 4l288 255v-798l-196 168q-6 6 -14.5 5t-14 -7.5t-5 -14.5t6.5 -14l230 -197q6 -5 14 -5q4 0 8 2q12 5 12 18v888q0 14 -12 19.5zM176 252h-135v287h135
v-287zM736 400.5q0 -47.5 -28.5 -85t-74.5 -49.5h-5q-16 0 -20 15q-2 8 2 15.5t12 9.5q33 8 53 34.5t20 60t-20 59.5t-53 35q-8 2 -12 9.5t-2 15.5t9.5 12.5t15.5 1.5q46 -11 74.5 -48.5t28.5 -85zM879 400q0 -81 -41.5 -151t-112.5 -109q-5 -2 -10 -2q-12 0 -18 10
q-4 8 -1.5 16t9.5 12q62 34 98 94t36 130q0 71 -36.5 131t-98.5 94q-7 4 -9.5 12t1.5 15.5t12 10t16 -1.5q72 -39 113.5 -109t41.5 -152zM1024 400.5q0 -119.5 -63 -219.5q-61 -98 -164 -150q-5 -2 -10 -2q-12 0 -18 11q-4 7 -1 15.5t10 11.5q93 47 148 135q57 91 57 198.5
t-57 198.5q-55 88 -148 135q-7 3 -10 11t1 16t12 10.5t16 -1.5q103 -52 164 -150q63 -100 63 -219.5z" />
    <glyph glyph-name="uniE642" unicode="&#xe642;" 
d="M383 87q-8 0 -14 6t-6 14.5t6 14.5l273 278l-273 279q-6 6 -6 14.5t6 14.5t14.5 6t14.5 -6l288 -293q5 -6 5 -14.5t-5 -14.5l-288 -293q-6 -6 -15 -6z" />
    <glyph glyph-name="uniE649" unicode="&#xe649;" 
d="M986 450q-29 43 -71 52q-10 30 -40 39q-14 138 -116 232q-105 98 -249 98t-250 -98q-101 -94 -115 -232q-30 -9 -40 -39q-42 -9 -72 -52q-33 -50 -33 -119.5t33 -119.5q30 -44 72 -53q6 -18 22 -30t36 -12q26 0 43.5 18t17.5 43v306q0 19 -10.5 34.5t-27.5 22.5
q13 120 102 203q94 87 222 87t222 -87q89 -83 102 -203q-17 -7 -28 -22.5t-11 -34.5v-306q0 -19 11.5 -35t28.5 -22q-4 -61 -41 -93.5t-101 -32.5h-64q-7 18 -22.5 29.5t-35.5 11.5h-102q-25 0 -43 -18t-18 -43.5t18 -43.5t43 -18h102q20 0 35.5 11.5t22.5 29.5h64
q81 0 129.5 44.5t53.5 121.5q29 10 39 39q42 9 71 53q34 50 34 119.5t-34 119.5zM184 177q0 -8 -6 -14t-14.5 -6t-14.5 6t-6 14.5t-6 14.5t-15 6q-33 0 -57 39t-24 93t24 93.5t57 39.5q9 0 15 6t6 14t6 14t14.5 6t14.5 -6t6 -14v-306zM571 -47h-102q-8 0 -14 6t-6 14.5
t6 14.5t14 6h102q8 0 14 -6t6 -14.5t-6 -14.5t-14 -6zM897 198q-8 0 -14 -6t-6 -14.5t-6 -14.5t-14.5 -6t-14.5 6t-6 14v306q0 8 6 14t14.5 6t14.5 -6t6 -14t6 -14t14 -6q33 0 57.5 -39.5t24.5 -93.5t-24.5 -93t-57.5 -39z" />
    <glyph glyph-name="uniE64C" unicode="&#xe64c;" 
d="M1004 467l-132 22q-12 40 -33 77l78 111q10 14 -2 26l-87 86q-12 13 -26 3l-109 -79q-37 21 -78 33l-23 132q-2 7 -7.5 12t-13.5 5h-122q-7 0 -13 -5t-7 -12l-22 -132q-41 -11 -78 -32l-108 78q-14 10 -27 -2l-86 -87q-12 -12 -3 -26l77 -109q-21 -38 -33 -79l-131 -22
q-7 -1 -12 -7t-5 -13v-123q0 -7 5 -12.5t12 -7.5l131 -23q12 -41 33 -79l-78 -108q-10 -14 2 -26l87 -87q12 -12 26 -2l110 77q37 -21 78 -33l22 -131q1 -8 7 -12.5t13 -4.5h122q8 0 13.5 4.5t7.5 11.5l23 133q41 12 78 32l110 -77q14 -10 26 2l87 87q12 12 2 26l-78 109
q20 37 32 78l132 23q8 2 12.5 7.5t4.5 12.5v123q0 7 -4.5 13t-12.5 7zM980 342l-128 -23q-13 -2 -17 -15q-12 -49 -37 -91q-7 -12 1 -23l76 -105l-62 -63l-107 75q-11 8 -23 1q-42 -26 -91 -38q-13 -3 -15 -16l-23 -129h-88l-21 128q-2 13 -15 16q-49 13 -92 38q-11 7 -22 0
l-106 -75l-62 63l75 104q7 11 0 23q-26 43 -38 92q-3 13 -16 15l-127 23v88l127 21q13 2 16 15q13 49 39 92q6 11 -1 22l-74 106l62 62l105 -75q11 -8 23 -1q42 26 91 38q13 3 16 17l20 127h88l23 -128q2 -13 15 -16q49 -12 91 -38q12 -7 23 0l105 76l63 -62l-76 -107
q-7 -11 0 -22q25 -43 37 -91q4 -13 17 -15l128 -21v-88zM695 385q0 -9 -6 -15t-14.5 -6t-14.5 6t-6 15q0 59 -42 101t-101 42t-101 -42t-42 -101t42 -101t101 -42q51 0 90 32q6 5 14.5 4t14 -7.5t4.5 -15t-8 -13.5q-50 -41 -115 -41q-76 0 -129.5 54t-53.5 130t53.5 129.5
t129.5 53.5t130 -53.5t54 -129.5z" />
    <glyph glyph-name="uniE64D" unicode="&#xe64d;" 
d="M979 480v304q0 30 -21 51t-50 21q-2 0 -78 -0.5t-151 -0.5h-75h-6q-5 1 -7 1q-50 0 -70 -20l-463 -464q-18 -17 -18 -41.5t18 -41.5l354 -355q17 -17 41.5 -17t42.5 17l463 464q10 9 14.5 23t5 24t0.5 29v6zM938 474q0 -39 -7 -47l-464 -464q-6 -5 -13.5 -5t-12.5 5
l-354 355q-6 5 -6 12.5t6 12.5l463 464q8 8 41 8h7h6h304q12 0 21 -9t9 -22v-18v-44v-58v-65v-59v-42v-18v-6zM860 676q-8 -3 -16 0t-11 11t-9 14q-12 12 -28.5 12t-28.5 -12t-12 -29t12 -29t28.5 -12t28.5 12q6 6 14.5 6t14.5 -6t6 -14.5t-6 -14.5q-24 -24 -57.5 -24
t-57.5 24t-24 58t24 57.5t57.5 23.5t57.5 -23q12 -12 18 -27q3 -8 0 -16t-11 -11z" />
    <glyph glyph-name="uniE650" unicode="&#xe650;" 
d="M875 400.5q0 -8.5 -6 -14.5t-15 -6h-605l189 -188q6 -6 6 -14.5t-6 -14.5t-14.5 -6t-14.5 6l-223 223q-6 6 -6 14.5t6 14.5l223 223q6 6 14.5 6t14.5 -6t6 -14.5t-6 -14.5l-189 -188h605q9 0 15 -6t6 -14.5z" />
    <glyph glyph-name="uniE653" unicode="&#xe653;" 
d="M764 437q-6 -6 -14.5 -6t-14.5 6l-187 187v-603q0 -9 -6 -15t-14.5 -6t-14.5 6t-6 15v603l-188 -187q-6 -6 -14.5 -6t-14.5 6t-6 14.5t6 14.5l223 222q6 6 14.5 6t14.5 -6l222 -222q6 -6 6 -14.5t-6 -14.5zM843 745.5q0 -8.5 -6 -14.5t-15 -6h-590q-9 0 -15 6t-6 14.5
t6 14.5t15 6h590q9 0 15 -6t6 -14.5z" />
    <glyph glyph-name="uniE656" unicode="&#xe656;" 
d="M1023 340q0 -75 -53.5 -128.5t-128.5 -53.5h-185q-9 0 -15 6t-6 14.5t6 14.5t15 6h185q58 0 99.5 41.5t41.5 99.5t-41 99t-99 42l-1 -1q-10 0 -16 7t-5 16q2 16 2 29q0 94 -67 160.5t-161 66.5q-72 0 -131 -42q-57 -41 -82 -107q-4 -10 -15 -12.5t-19 5.5
q-29 30 -71.5 30t-72.5 -30t-30 -72v-2v-3q1 -16 -15 -20q-50 -14 -82 -55q-32 -42 -32 -96q0 -64 45.5 -110t110.5 -46h170q8 0 14 -6t6 -14.5t-6 -14.5t-14 -6h-170q-82 0 -139.5 58t-57.5 139q0 68 41 121q35 45 88 65q4 56 45.5 94.5t97.5 38.5q43 0 79 -24
q30 61 85 101q70 49 155 49q111 0 190 -78.5t79 -189.5q0 -6 -1 -12q68 -8 114.5 -59.5t46.5 -120.5zM629 307q-6 -6 -14.5 -6t-14.5 6l-67 67v-359q0 -8 -6 -14t-14.5 -6t-14.5 6t-6 14v359l-67 -67q-6 -6 -14.5 -6t-14.5 6t-6 14.5t6 14.5l102 102q6 6 14.5 6t14.5 -6
l102 -102q6 -6 6 -14.5t-6 -14.5z" />
    <glyph glyph-name="uniE657" unicode="&#xe657;" 
d="M994 623v-449q0 -12 -10 -18t-20 0l-265 143q-7 4 -9.5 12t1.5 15.5t12 10t15 -1.5l236 -127v381l-236 -127q-10 -5 -20 0.5t-10 17.5v204h-612v-571h633q8 0 14 -6t6 -14.5t-6 -14.5t-14 -6h-653q-9 0 -15 6t-6 14v612q0 9 6 15t15 6h653q8 0 14 -6t6 -15v-190l235 127
q10 5 20 -1t10 -17z" />
    <glyph glyph-name="uniE659" unicode="&#xe659;" 
d="M797 606q-33 27 -79 48.5t-77 31t-89 24.5l-23 6q-44 11 -64.5 18.5t-44.5 23.5q-85 53 -115 53q-10 0 -17 -7q-11 -13 6 -45q11 -22 15 -35q15 -53 -25 -86q-189 -151 -180 -334q5 -97 58 -177t141.5 -125t194.5 -45q17 0 33 1q171 12 278.5 117.5t111.5 265.5
q3 159 -124 265zM587 283q-13 -1 -24.5 11.5t-20.5 35.5q60 62 61 65q4 4 -2 5l-75 15q-1 33 8 54.5t25 23.5q20 3 38 -25.5t25 -76.5q6 -43 -4.5 -74t-30.5 -34zM779 320q-11 -3 -21 10t-17 39q53 51 56 53q3 4 -2 4l-64 12q-1 31 7.5 53.5t23.5 24.5q17 4 31.5 -24.5
t18.5 -69.5q4 -44 -5.5 -70.5t-27.5 -31.5z" />
    <glyph glyph-name="uniE65E" unicode="&#xe65e;" 
d="M949 748q-10 10 -24 10t-24.5 -10t-10.5 -24v-27l-756 -223v12q0 14 -10.5 24t-24.5 10t-24 -10t-10 -24v-170q0 -14 10 -24t24 -10t24.5 10t10.5 24v8l756 -252v-28q0 -14 10.5 -24t24.5 -10t24 10t10 24v680q0 14 -10 24zM856 520l-688 -102v17l688 187v-102zM529 152
l-8 -22q-12 -35 -46 -52q-19 -9 -40 -9q-15 0 -30 4l-85 29q-36 12 -53 45.5t-5 69.5l8 22q3 8 10.5 11.5t15.5 0.5t12 -10.5t1 -15.5l-8 -22q-7 -19 2.5 -37.5t29.5 -25.5l85 -28q20 -6 39 3t25 29l8 22q3 8 11 11.5t16 0.5t11.5 -10.5t0.5 -15.5z" />
    <glyph glyph-name="uniE660" unicode="&#xe660;" 
d="M710 348q82 82 82 198t-82 197.5t-198 81.5t-198 -81.5t-82 -197.5t82 -198q70 -69 169 -80v-129h-138v-59h137v-137h60v137h137v59h-137v129q98 11 168 80zM355.5 389.5q-64.5 64.5 -64.5 156t64.5 156t156.5 64.5t156.5 -64.5t64.5 -156t-64.5 -156t-156.5 -64.5
t-156.5 64.5z" />
    <glyph glyph-name="uniE661" unicode="&#xe661;" 
d="M512 -41q-115 0 -213 57t-155 155t-57 213t57 213t155 155t213 57t213 -57t155 -155t57 -213t-57 -213t-155 -155t-213 -57zM724 426h-170v170h-84v-170h-170v-84h170v-170h84v170h170v84z" />
    <glyph glyph-name="uniE662" unicode="&#xe662;" 
d="M942 700l-430 -632l-430 632h860z" />
    <glyph glyph-name="uniE664" unicode="&#xe664;" 
d="M614 224q-1 20 -1 86q12 6 27.5 38t18.5 62q12 1 22.5 14t14 43.5t-15.5 42.5q7 21 12.5 46.5t7.5 61.5t-4.5 65t-29.5 52t-61 28q-21 36 -95 36q-66 -1 -108.5 -24.5t-58.5 -64.5t-15.5 -90.5t16.5 -109.5q-19 -12 -15.5 -42.5t14 -43.5t22.5 -14q3 -30 19 -62t29 -38
q0 -66 -2 -86q-9 -22 -34 -39.5t-56 -28t-66 -26.5t-64.5 -34t-50 -50.5t-22.5 -76.5h788q-2 44 -22.5 76.5t-49.5 50.5t-64 34t-66 26.5t-56 28t-34 39.5z" />
    <glyph glyph-name="uniE667" unicode="&#xe667;" 
d="M849 191q-22 -67 -57 -118q-17 -25 -27.5 -38.5t-27 -30.5t-34.5 -25t-38 -8q-27 0 -65.5 16.5t-71.5 16.5t-72 -16.5t-63 -17.5q-20 -1 -38 7.5t-35.5 26.5t-29 32.5t-28.5 38.5q-38 55 -62 125t-24.5 151t34.5 141q27 47 72.5 75t98.5 29q29 0 76 -18t60 -18t39.5 11
t59 20.5t60.5 6.5q20 -1 41 -5.5t54.5 -24.5t55.5 -52q-90 -61 -89 -158q0 -35 12 -65t26.5 -47.5t33.5 -31.5t27 -17.5t12 -5.5zM634 665q50 62 43 133q-31 -1 -65.5 -18.5t-56.5 -44.5q-22 -25 -35.5 -60t-8.5 -68q33 -2 66.5 14.5t56.5 43.5z" />
    <glyph glyph-name="uniE66B" unicode="&#xe66b;" 
d="M850.5 722.5q-18.5 18.5 -37.5 29.5t-45.5 15.5t-46.5 5.5t-60 1h-298q-40 0 -60 -1t-46.5 -5.5t-45.5 -15.5t-37.5 -29.5t-29.5 -37.5t-15.5 -45.5t-5.5 -46.5t-1 -60v-298q0 -40 1 -60t5.5 -46.5t15.5 -45.5t29.5 -37.5t37.5 -29.5t45.5 -15.5t46.5 -5.5t60 -1h298
q40 0 60 1t46.5 5.5t45.5 15.5t37.5 29.5t29.5 37.5t15.5 45.5t5.5 46.5t1 60v298q0 40 -1 60t-5.5 46.5t-15.5 45.5t-29.5 37.5zM744 188q-10 -28 -33 -52q-37 -42 -115 -58q-24 -4 -65 -5q-1 -1 -9 -1q-9 0 -16 1q-39 1 -65 6q-78 16 -115 57q-24 25 -33 52q-8 23 -8 48
q0 49 31.5 75.5t78.5 26.5h125h122q47 0 78.5 -26.5t31.5 -75.5q0 -26 -8 -48zM783 429q3 -5 10 -6.5t12 -0.5l6 1q-1 -2 -2 -5t-5.5 -10.5t-10 -13t-14.5 -9.5t-20 -3q-20 2 -39 12v-41q1 -15 5 -37q-28 29 -83 29h-124h-123q-54 0 -83 -29q4 17 5 32v44q-17 -8 -36 -10
q-16 -2 -29 8.5t-17 21.5l-5 11q21 -4 27 6q17 25 58 27q-29 14 -49.5 35.5t-29 41.5t-12.5 38t-4 29l1 11q4 34 16 36q7 1 11.5 -3.5t6.5 -9.5t4 -15q14 -58 104 -79q39 46 106 46h10q-9 20 8 37l3 2q-9 -29 16 -35q9 -2 8 0q-13 42 14 56l4 1q-21 -29 21 -61h11
q67 0 108 -47q92 21 106 80q2 9 4 14.5t6.5 10t11.5 2.5q5 0 9.5 -9t5.5 -17l1 -9q-1 -2 0.5 -11.5t-3.5 -28.5t-12.5 -38.5t-28 -41t-50.5 -35.5q44 -1 61 -27zM677 315q-18 6 -31 -10q-2 0 -2 -2q-1 -3 2 -4t4 1q10 14 25 8q9 -3 13.5 -11.5t0.5 -17.5q0 -2 -2 -4v-1
q-1 -3 2 -4t4 2l1 1q1 3 2 4q4 12 -1.5 23t-17.5 15zM640 420q-19 14 -44 13q-19 0 -36 -18q-5 -5 1 -8q5 -2 8 2q16 12 34 11q19 -1 32 -7q3 -1 5.5 -0.5t3 3t-3.5 4.5zM467 414q-17 19 -39 19h-9q-4 0 -7 -1t-5.5 -1.5t-5 -2.5t-3.5 -2.5t-4.5 -3t-3.5 -3.5q-6 -4 -3 -7
t8 0q1 0 4.5 2t5.5 3t6 2t10 1q22 0 38 -12q3 -1 5.5 -0.5t3.5 2t-1 4.5zM388 302q-13 16 -32 11q-11 -3 -17 -14t-3 -23l3 -6q1 -2 3 -2q4 0 4 3q0 2 -2 3q-1 2 -1 4q-3 9 1.5 17.5t13.5 11.5q17 4 26 -10q1 -1 2 -1q4 0 4 3q0 2 -2 3z" />
    <glyph glyph-name="uniE66D" unicode="&#xe66d;" 
d="M889 639q-10 39 -44 73t-72 44q-253 58 -507 0q-38 -10 -71.5 -44t-44.5 -73q-29 -114 -29 -253.5t29 -256.5q11 -39 44.5 -73.5t71.5 -43.5q122 -28 253.5 -28t253.5 28q38 9 72 43.5t44 73.5q30 115 30 255t-30 255zM732 143q-29 -8 -100 -8h-112h-112q-72 0 -100 8
q-27 7 -40.5 26t-13.5 62q0 76 16.5 128.5t43.5 82t72 53.5q2 88 37 138t97 50q61 0 96 -50t37 -137q44 -24 71.5 -53.5t44 -82.5t16.5 -129q0 -43 -13.5 -62t-39.5 -26zM601 243q-27 -43 -80 -43q-31 0 -53.5 12t-29.5 31q-5 10 -2 10q2 0 7 -3l5 -4q6 -4 9.5 -6t11.5 -6
t15 -6.5t17 -4.5t20 -2q34 0 74 30q9 7 10 1q0 -3 -4 -9zM669 370v-22q0 -5 -4.5 -9.5t-9.5 -4.5h-22q-5 0 -9.5 4.5t-4.5 9.5v22q0 5 4.5 9.5t9.5 4.5h22q5 0 9.5 -4.5t4.5 -9.5zM419 370v-22q0 -5 -4 -9.5t-10 -4.5h-21q-6 0 -10 4.5t-4 9.5v22q0 5 4 9.5t10 4.5h21
q6 0 10 -4.5t4 -9.5zM522 518h-1v0h-1v0q-56 0 -102 -13q10 144 101 145q90 0 100 -146q-48 14 -97 14z" />
    <glyph glyph-name="uniE66E" unicode="&#xe66e;" 
d="M715 766q-63 0 -116.5 -29t-86.5 -79q-33 50 -86.5 79t-116.5 29q-101 0 -172 -70.5t-71 -170.5q0 -67 25 -130t62.5 -108.5t90.5 -91.5t98 -75.5t95.5 -64t74.5 -53.5q24 19 74.5 53.5t95.5 64t98 75.5t90.5 91.5t62.5 108.5t25 130q0 100 -71 170.5t-172 70.5z" />
    <glyph glyph-name="uniE71E" unicode="&#xe71e;" 
d="M512 830q-91 0 -173.5 -35.5t-142 -95t-95 -142t-35.5 -173.5t35.5 -173.5t95 -142t142 -95t173.5 -35.5t173.5 35.5t142 95t95 142t35.5 173.5t-35.5 173.5t-95 142t-142 95t-173.5 35.5zM512 224q-66 0 -113 47t-47 113t47 113t113 47t113 -47t47 -113t-47 -113
t-113 -47z" />
    <glyph glyph-name="uniE71F" unicode="&#xe71f;" 
d="M512 830q-91 0 -173.5 -35.5t-142 -95t-95 -142t-35.5 -173.5t35.5 -173.5t95 -142t142 -95t173.5 -35.5t173.5 35.5t142 95t95 142t35.5 173.5t-35.5 173.5t-95 142t-142 95t-173.5 35.5zM512 2q-104 0 -192 51t-139 139t-51 192t51 192t139 139t192 51t192 -51
t139 -139t51 -192t-51 -192t-139 -139t-192 -51zM512 544q-66 0 -113 -47t-47 -113t47 -113t113 -47t113 47t47 113t-47 113t-113 47z" />
    <glyph glyph-name="uniE720" unicode="&#xe720;" 
d="M832 -32h-640q-40 0 -68 28t-28 68v640q0 40 28 68t68 28h640q40 0 68 -28t28 -68v-640q0 -40 -28 -68t-68 -28zM192 736q-13 0 -22.5 -9.5t-9.5 -22.5v-640q0 -13 9.5 -22.5t22.5 -9.5h640q13 0 22.5 9.5t9.5 22.5v640q0 13 -9.5 22.5t-22.5 9.5h-640z" />
    <glyph glyph-name="uniE721" unicode="&#xe721;" 
d="M832 800h-640q-40 0 -68 -28t-28 -68v-640q0 -40 28 -68t68 -28h640q40 0 68 28t28 68v640q0 40 -28 68t-68 28zM727 458l-256 -259v-1q-2 -1 -7 -4q-1 -1 -2 -1.5t-2 -1.5q-6 -2 -12 -2t-12 2q-1 1 -2 1.5t-1 1.5q-6 3 -7 4v1h-1l-126 129q-9 10 -9 23t9.5 22.5t23 9
t22.5 -9.5l103 -106l234 236q9 9 22.5 9t22.5 -9.5t9.5 -22.5t-9.5 -22z" />
    <glyph glyph-name="uniE722" unicode="&#xe722;" 
d="M727 502.5q-9 9.5 -22.5 9.5t-22.5 -9l-234 -236l-103 106q-9 9 -22.5 9.5t-23 -9t-9.5 -22.5t9 -23l126 -129h1v-1q1 -1 7 -4q0 -1 1 -1.5t2 -1.5q6 -2 12 -2t12 2q1 1 2 1.5t2 1.5q5 3 7 4v1l256 259q10 9 9.5 22t-9.5 22.5zM832 -32h-640q-40 0 -68 28t-28 68v640
q0 40 28 68t68 28h640q40 0 68 -28t28 -68v-640q0 -40 -28 -68t-68 -28zM192 736q-13 0 -22.5 -9.5t-9.5 -22.5v-640q0 -13 9.5 -22.5t22.5 -9.5h640q13 0 22.5 9.5t9.5 22.5v640q0 13 -9.5 22.5t-22.5 9.5h-640z" />
    <glyph glyph-name="uniE723" unicode="&#xe723;" 
d="M557 383l266 264q9 9 9 22t-9.5 22.5t-22.5 9.5t-23 -9l-265 -264l-263 264q-9 9 -22.5 9t-23 -9t-9.5 -22.5t10 -22.5l263 -264l-265 -264q-10 -9 -10 -22.5t9.5 -22.5t22.5 -9t23 9l265 264l265 -267q10 -9 23 -9t22.5 9.5t9.5 22.5t-9 23z" />
    <glyph glyph-name="uniE724" unicode="&#xe724;" 
d="M512 832q-185 0 -316.5 -131.5t-131.5 -316.5t131.5 -316.5t316.5 -131.5t316.5 131.5t131.5 316.5t-131.5 316.5t-316.5 131.5zM695 246q9 -9 9 -22.5t-9.5 -23t-22.5 -9.5t-23 10l-137 138l-138 -137q-10 -9 -23 -9t-22.5 9.5t-9.5 22.5t10 23l138 136l-138 138
q-9 9 -9 22.5t9.5 23t22.5 9.5t23 -10l137 -138l138 137q10 9 23 9t22.5 -9.5t9.5 -22.5t-10 -23l-138 -136z" />
    <glyph glyph-name="uniE725" unicode="&#xe725;" 
d="M512 -64q-185 0 -316.5 131.5t-131.5 316.5t131.5 316.5t316.5 131.5t316.5 -131.5t131.5 -316.5t-131.5 -316.5t-316.5 -131.5zM512 768q-104 0 -192.5 -51.5t-140 -140t-51.5 -192.5t51.5 -192.5t140 -140t192.5 -51.5t192.5 51.5t140 140t51.5 192.5t-51.5 192.5
t-140 140t-192.5 51.5zM557 383l138 136q10 10 10 23t-9.5 22.5t-22.5 9.5t-23 -9l-138 -137l-137 137q-9 9 -22 9t-22.5 -9t-9.5 -22.5t9 -22.5l136 -137l-137 -136q-9 -9 -9.5 -22.5t9 -23t22.5 -9.5q14 0 23 10l138 136l138 -140q10 -9 23 -9t22.5 9.5t9.5 22.5t-9 23z
" />
    <glyph glyph-name="uniE726" unicode="&#xe726;" 
d="M512 -62q-90 0 -171.5 33.5t-145 97t-97.5 145t-34 170.5t34 170.5t97.5 145t145 97t171.5 33.5t171.5 -33.5t145 -97t97.5 -145t34 -170.5t-34 -170.5t-97.5 -145t-145 -97t-171.5 -33.5zM512 766q-77 0 -147 -29t-124.5 -83t-83.5 -123.5t-29 -146.5t29 -146.5
t83.5 -123.5t124.5 -83t147 -29t147 29t124.5 83t83.5 124t29 146.5t-29 146t-83.5 123.5t-124.5 83t-147 29zM736 416h-192v192q0 13 -9.5 22.5t-22.5 9.5t-22.5 -9.5t-9.5 -22.5v-192h-192q-13 0 -22.5 -9.5t-9.5 -22.5t9.5 -22.5t22.5 -9.5h192v-192q0 -13 9.5 -22.5
t22.5 -9.5t22.5 9.5t9.5 22.5v192h192q13 0 22.5 9.5t9.5 22.5t-9.5 22.5t-22.5 9.5z" />
    <glyph glyph-name="uniE727" unicode="&#xe727;" 
d="M863 415h-317v318q0 13 -9.5 22.5t-22.5 9.5t-22.5 -9.5t-9.5 -22.5v-318h-322q-14 0 -23 -9.5t-9.5 -22.5t9 -22.5t22.5 -9.5h323v-319q0 -14 9.5 -23t22.5 -9t22.5 9t9.5 23v319h317q13 0 22.5 9t9.5 22.5t-9 23t-23 9.5z" />
    <glyph glyph-name="uniE728" unicode="&#xe728;" 
d="M828.5 699.5q-63.5 63.5 -145 97t-171.5 33.5t-171.5 -33.5t-145 -97t-97.5 -145t-34 -170.5t34 -170.5t97.5 -145t145 -97t171.5 -33.5t171.5 33.5t145 97t97.5 145t34 170.5t-34 170.5t-97.5 145zM736 352h-192v-192q0 -13 -9.5 -22.5t-22.5 -9.5t-22.5 9.5t-9.5 22.5
v192h-192q-13 0 -22.5 9.5t-9.5 22.5t9.5 22.5t22.5 9.5h192v192q0 13 9.5 22.5t22.5 9.5t22.5 -9.5t9.5 -22.5v-192h192q13 0 22.5 -9.5t9.5 -22.5t-9.5 -22.5t-22.5 -9.5z" />
    <glyph glyph-name="uniE729" unicode="&#xe729;" 
d="M864 352h-701q-13 0 -22.5 9.5t-9.5 22.5t9.5 22.5t22.5 9.5h701q13 0 22.5 -9.5t9.5 -22.5t-9.5 -22.5t-22.5 -9.5z" />
    <glyph glyph-name="uniE72A" unicode="&#xe72a;" 
d="M512 830q-91 0 -173.5 -35.5t-142 -95t-95 -142t-35.5 -173.5t35.5 -173.5t95 -142t142 -95t173.5 -35.5t173.5 35.5t142 95t95 142t35.5 173.5t-35.5 173.5t-95 142t-142 95t-173.5 35.5zM544 160q0 -13 -9.5 -22.5t-22.5 -9.5t-22.5 9.5t-9.5 22.5v288q0 13 9.5 22.5
t22.5 9.5t22.5 -9.5t9.5 -22.5v-288zM512 544q-20 0 -34 14t-14 34t14 34t34 14t34 -14t14 -34t-14 -34t-34 -14z" />
    <glyph glyph-name="uniE72B" unicode="&#xe72b;" 
d="M512 -62q-91 0 -173.5 35.5t-142 95t-95 142t-35.5 173.5t35.5 173.5t95 142t142 95t173.5 35.5t173.5 -35.5t142 -95t95 -142t35.5 -173.5t-35.5 -173.5t-95 -142t-142 -95t-173.5 -35.5zM512 766q-104 0 -192 -51t-139 -139t-51 -192t51 -192t139 -139t192 -51t192 51
t139 139t51 192t-51 192t-139 139t-192 51zM464 592q0 -20 14 -34t34 -14t34 14t14 34t-14 34t-34 14t-34 -14t-14 -34zM512 128q-13 0 -22.5 9.5t-9.5 22.5v288q0 13 9.5 22.5t22.5 9.5t22.5 -9.5t9.5 -22.5v-288q0 -13 -9.5 -22.5t-22.5 -9.5z" />
    <glyph glyph-name="uniE72D" unicode="&#xe72d;" 
d="M464 112q0 -20 14 -34t34 -14t34 14t14 34t-14 34t-34 14t-34 -14t-14 -34zM512 -64q-185 0 -316.5 131.5t-131.5 316.5t131.5 316.5t316.5 131.5t316.5 -131.5t131.5 -316.5t-131.5 -316.5t-316.5 -131.5zM512 768q-104 0 -192.5 -51.5t-140 -140t-51.5 -192.5
t51.5 -192.5t140 -140t192.5 -51.5t192.5 51.5t140 140t51.5 192.5t-51.5 192.5t-140 140t-192.5 51.5zM512 222q-13 0 -22.5 9.5t-9.5 22.5v54q0 25 13 50t25.5 39.5t36.5 38.5q18 18 26.5 27t17.5 23t9 24q0 40 -28 68.5t-68 28.5t-68 -27.5t-28 -67.5q0 -13 -9.5 -22.5
t-22.5 -9.5t-22.5 9.5t-9.5 22.5q0 66 47 112.5t113 46.5t113 -47t47 -114q0 -22 -12 -45.5t-24 -37t-35 -36.5q-19 -19 -28.5 -29t-19 -26t-9.5 -28v-54q0 -13 -9.5 -22.5t-22.5 -9.5z" />
    <glyph glyph-name="uniE72E" unicode="&#xe72e;" 
d="M888 598q-10 9 -23 8.5t-22 -10.5l-427 -454l-233 230q-10 9 -23 9t-22.5 -9.5t-9.5 -23t10 -22.5l256 -253h1q1 -1 7 -4q0 -1 1 -1.5t2 -1.5q6 -2 12 -2t12 3q1 0 2 1t2 1q5 3 7 5v0l449 479q9 9 9 22.5t-10 22.5z" />
    <glyph glyph-name="uniE72F" unicode="&#xe72f;" 
d="M512 -64q-185 0 -316.5 131.5t-131.5 316.5t131.5 316.5t316.5 131.5t316.5 -131.5t131.5 -316.5t-131.5 -316.5t-316.5 -131.5zM512 768q-159 0 -271.5 -112.5t-112.5 -271.5t112.5 -271.5t271.5 -112.5t271.5 112.5t112.5 271.5t-112.5 271.5t-271.5 112.5z" />
    <glyph glyph-name="uniE730" unicode="&#xe730;" 
d="M512 830q-91 0 -173.5 -35.5t-142 -95t-95 -142t-35.5 -173.5t35.5 -173.5t95 -142t142 -95t173.5 -35.5t173.5 35.5t142 95t95 142t35.5 173.5t-35.5 173.5t-95 142t-142 95t-173.5 35.5zM727 458l-256 -259v-1q-2 -1 -7 -4q-1 -1 -2 -1.5t-2 -1.5q-6 -2 -12 -2t-12 2
q-1 1 -2 1.5t-1 1.5q-6 3 -7 4v1h-1l-126 129q-9 10 -9 23t9.5 22.5t23 9t22.5 -9.5l103 -106l234 236q9 9 22.5 9t22.5 -9t9.5 -22.5t-9.5 -22.5z" />
    <glyph glyph-name="uniE731" unicode="&#xe731;" 
d="M512 -64q-185 0 -316.5 131.5t-131.5 316.5t131.5 316.5t316.5 131.5t316.5 -131.5t131.5 -316.5t-131.5 -316.5t-316.5 -131.5zM512 768q-104 0 -192.5 -51.5t-140 -140t-51.5 -192.5t51.5 -192.5t140 -140t192.5 -51.5t192.5 51.5t140 140t51.5 192.5t-51.5 192.5
t-140 140t-192.5 51.5zM727 502.5q-9 9.5 -22.5 9.5t-22.5 -9l-234 -236l-103 106q-9 9 -22.5 9.5t-23 -9t-9.5 -22.5t9 -23l126 -129h1v-1q1 -1 7 -4q0 -1 1 -1.5t2 -1.5q6 -2 12 -2t12 2q1 1 2 1.5t2 1.5q5 3 7 4v1l256 259q10 9 9.5 22t-9.5 22.5z" />
    <glyph glyph-name="uniE732" unicode="&#xe732;" 
d="M957 491.5q-6 18.5 -25 21.5l-271 42l-120 259q-9 18 -29 18q-21 0 -29 -18l-122 -258l-271 -41q-19 -3 -25.5 -21.5t7.5 -32.5l196 -202l-47 -285q-3 -20 13.5 -31.5t33.5 -1.5l242 133l242 -134q7 -4 15 -4h1q13 0 22.5 9.5t9.5 22.5q0 6 -2 11l-45 279l197 201
q13 14 7 32.5z" />
    <glyph glyph-name="uniE734" unicode="&#xe734;" 
d="M570 800h-6q-118 0 -197 -75t-79 -187v-122v-64v-243l-105 106q-9 10 -22.5 10t-23 -9.5t-9.5 -22.5t10 -23l158 -160q9 -9 23 -9q13 0 22 9v0l160 159q9 9 9 22.5t-9 23t-22.5 9.5t-22.5 -10l-104 -103v241v64v122q0 85 60.5 141.5t151.5 56.5h6q87 0 142.5 -55
t55.5 -143v-506q0 -13 9.5 -22.5t22.5 -9.5t22.5 9.5t9.5 22.5v506q0 114 -74 188t-188 74z" />
    <glyph glyph-name="uniE735" unicode="&#xe735;" 
d="M953 543v1v1q-1 2 -2 5l-75 187q-10 29 -35 45.5t-59 16.5h-527q-33 0 -57 -16t-34 -44l-80 -191l-1 -4q-9 -28 -9 -56q0 -48 25 -90t68 -65q35 -19 83 -19q82 0 134 63q52 -62 134 -63q81 1 133 63q52 -63 135 -63q48 1 84 20q42 24 66.5 65.5t24.5 89.5q0 28 -8 54z
M766 512h-512q-13 0 -22.5 9.5t-9.5 22.5t9.5 22.5t22.5 9.5h512q14 0 23 -9.5t9 -22.5t-9 -22.5t-23 -9.5zM895 256q0 13 -9.5 22.5t-22.5 9.5q-4 0 -9 -2q-39 -15 -77 -13q-79 4 -126 44q-57 -48 -133 -49q-82 0 -134 44q-55 -47 -134 -47q-32 0 -76 16q0 1 -1 1h-1
q-1 1 -2 1t-2 1h-7q-13 0 -22.5 -9t-9.5 -23v-171q0 -34 24 -58t58 -24h602q34 1 58 25t24 58v174z" />
    <glyph glyph-name="uniE736" unicode="&#xe736;" 
d="M953 543v1v1q-1 2 -2 5l-75 187q-10 29 -35.5 45.5t-58.5 16.5h-527q-33 0 -57 -16t-34 -44l-80 -191l-1 -4q-9 -28 -9 -56q0 -48 25 -90t68 -65v0v0q36 -19 83 -19q82 1 134 63q52 -62 134 -62q81 0 133 62q52 -62 134 -62q49 0 85 20q42 23 66.5 64.5t24.5 89.5
q0 28 -8 54zM839 391q-22 -12 -54 -12q-29 0 -54 14t-41 39q-4 9 -8 13q-12 13 -31 13q-20 0 -31 -13q-4 -5 -8 -13q-16 -25 -41 -39t-53 -15q-29 1 -54 15t-41 39q-4 8 -7 12q-11 13 -32 13t-30 -12q-6 -6 -9 -14q-16 -25 -41 -39t-54 -14q-31 0 -53 11v0q-27 15 -43 41.5
t-16 57.5q0 19 6 37q0 1 1 3l79 188q7 19 32 19h526q28 -2 34 -21l75 -185q0 -2 1 -4q6 -18 6 -36q-1 -31 -16.5 -57.5t-42.5 -40.5zM863 288q-13 0 -22.5 -9.5t-9.5 -22.5v-174q0 -8 -5.5 -13.5t-12.5 -5.5h-602q-8 0 -13 5.5t-5 12.5v171q0 14 -9.5 23t-22.5 9
q-14 0 -23 -9t-9 -23v-171q0 -34 24 -58t58 -24h602q34 1 58 25t24 58v174q0 13 -9.5 22.5t-22.5 9.5zM768 512h-512q-13 0 -22.5 9.5t-9.5 22.5t9.5 22.5t22.5 9.5h512q13 0 22.5 -9.5t9.5 -22.5t-9.5 -22.5t-22.5 -9.5z" />
    <glyph glyph-name="uniE737" unicode="&#xe737;" 
d="M800 -32h-576q-40 0 -68 28t-28 68v640q0 40 28 68t68 28h576q40 0 68 -28t28 -68v-640q0 -40 -28 -68t-68 -28zM224 736q-13 0 -22.5 -9.5t-9.5 -22.5v-640q0 -13 9.5 -22.5t22.5 -9.5h576q13 0 22.5 9.5t9.5 22.5v640q0 13 -9.5 22.5t-22.5 9.5h-576zM641 351h-353
q-14 0 -23 9.5t-9 23t9 22.5t23 9h353q13 0 22.5 -9t9.5 -22.5t-9.5 -23t-22.5 -9.5zM735 160h-447q-14 0 -23 9.5t-9 23t9 22.5t23 9h447q13 0 22.5 -9t9.5 -22.5t-9.5 -23t-22.5 -9.5zM256 591q0 -20 14 -34t34 -14t34 14t14 34t-14 34t-34 14t-34 -14t-14 -34zM463 591
q0 -20 14 -34t34 -14t34 14t14 34t-14 34t-34 14t-34 -14t-14 -34zM671 591q0 -20 14 -34t34 -14t34 14t14 34t-14 34t-34 14t-34 -14t-14 -34z" />
    <glyph glyph-name="uniE738" unicode="&#xe738;" 
d="M800 -64h-576q-40 0 -68 28t-28 68v640q0 40 28 68t68 28h448q13 0 22.5 -9.5t9.5 -22.5t-9.5 -22.5t-22.5 -9.5h-448q-13 0 -22.5 -9.5t-9.5 -22.5v-640q0 -13 9.5 -22.5t22.5 -9.5h576q13 0 22.5 9.5t9.5 22.5v512q0 13 9.5 22.5t22.5 9.5t22.5 -9.5t9.5 -22.5v-512
q0 -40 -28 -68t-68 -28zM612 448q-13 0 -22.5 9.5t-9.5 22.5t9 23l318 318q10 9 23 9t22.5 -9.5t9.5 -22.5t-9 -23l-318 -318q-10 -9 -23 -9zM480 448h-192q-13 0 -22.5 9.5t-9.5 22.5t9.5 22.5t22.5 9.5h192q13 0 22.5 -9.5t9.5 -22.5t-9.5 -22.5t-22.5 -9.5zM672 256h-384
q-13 0 -22.5 9.5t-9.5 22.5t9.5 22.5t22.5 9.5h384q13 0 22.5 -9.5t9.5 -22.5t-9.5 -22.5t-22.5 -9.5z" />
    <glyph glyph-name="uniE739" unicode="&#xe739;" 
d="M769 192q-54 0 -91 -38l-310 172q15 28 15 58q0 16 -6 36l305 189q37 -33 85 -33q53 0 90.5 37.5t37.5 90.5t-37.5 90.5t-90.5 37.5t-90.5 -37.5t-37.5 -90.5q0 -20 8 -41l-302 -188q-38 37 -90 37q-53 0 -90.5 -37.5t-37.5 -90.5t37.5 -90.5t90.5 -37.5q38 0 69 21
l322 -178q-6 -19 -6 -34q0 -53 37.5 -90.5t90.5 -37.5t90.5 37.5t37.5 90.5t-37 90t-90 37zM767.5 768q26.5 0 45 -19t18.5 -45t-18.5 -45t-45 -19t-45.5 19t-19 45t19 45t45.5 19zM191 384.5q0 26.5 19 45t45.5 18.5t45 -18.5t18.5 -45t-18.5 -45.5t-45 -19t-45.5 19
t-19 45.5zM768.5 0q-26.5 0 -45 19t-18.5 45.5t18.5 45t45 18.5t45.5 -18.5t19 -45t-19 -45.5t-45.5 -19z" />
    <glyph glyph-name="uniE73A" unicode="&#xe73a;" 
d="M224 288q-40 0 -68 28t-28 68t28 68t68 28t68 -28t28 -68t-28 -68t-68 -28zM512 288q-40 0 -68 28t-28 68t28 68t68 28t68 -28t28 -68t-28 -68t-68 -28zM800 288q-40 0 -68 28t-28 68t28 68t68 28t68 -28t28 -68t-28 -68t-68 -28z" />
    <glyph glyph-name="uniE73B" unicode="&#xe73b;" 
d="M448 -32h-2h-2l-286 32q-39 1 -66.5 29t-27.5 67v608q0 40 28 68t68 28h2h1l287 -32q39 -1 66.5 -29t27.5 -67v-608q0 -40 -28 -68t-68 -28zM158 736q-12 -1 -21 -10t-9 -22v-608q0 -13 9.5 -22.5t22.5 -9.5h2h1l286 -32q13 1 22 10t9 22v608q0 13 -9.5 22.5t-22.5 9.5
h-2h-2zM609 -28q-12 0 -21 8t-11 20q-1 13 7 23.5t22 12.5l254 28h4q13 0 22.5 9.5t9.5 22.5v608q0 13 -9 22t-22 10l-253 -28q-13 -2 -23 6.5t-11.5 22t6.5 23.5t21 12l256 28h3q40 0 68 -28t28 -68v-608q0 -39 -27.5 -67t-66.5 -29l-253 -28h-4zM408 538h-208
q-13 0 -22.5 9.5t-9.5 22.5t9.5 22.5t22.5 9.5h208q13 0 22.5 -9.5t9.5 -22.5t-9.5 -22.5t-22.5 -9.5zM408 353h-208q-14 0 -23 9.5t-9 23t9 22.5t23 9h208q13 0 22.5 -9t9.5 -22.5t-9.5 -23t-22.5 -9.5zM408 170h-208q-13 0 -22.5 9t-9.5 22.5t9.5 23t22.5 9.5h208
q13 0 22.5 -9.5t9.5 -23t-9.5 -22.5t-22.5 -9zM824 537h-208q-13 0 -22.5 9.5t-9.5 22.5t9.5 22.5t22.5 9.5h208q13 0 22.5 -9.5t9.5 -22.5t-9.5 -22.5t-22.5 -9.5zM824 352h-208q-13 0 -22.5 9.5t-9.5 23t9.5 22.5t22.5 9h208q13 0 22.5 -9t9.5 -22.5t-9.5 -23t-22.5 -9.5z
M824 169h-208q-13 0 -22.5 9t-9.5 22.5t9.5 23t22.5 9.5h208q13 0 22.5 -9.5t9.5 -23t-9.5 -22.5t-22.5 -9z" />
    <glyph glyph-name="uniE73E" unicode="&#xe73e;" 
d="M752 -64h-475q-39 0 -70.5 26.5t-38.5 64.5l-68 416q-7 41 18 71q26 31 68 31h657q42 0 67.5 -30.5t18.5 -71.5l-69 -415q-6 -39 -37.5 -65.5t-70.5 -26.5zM186 481q-12 0 -18.5 -8t-4.5 -20l69 -415q2 -15 15.5 -26.5t29.5 -11.5h475q16 0 29.5 11.5t15.5 26.5l69 415
q2 12 -4.5 20t-18.5 8h-657zM320.5 289q-26.5 0 -45.5 18.5t-19 45t19 45.5t45.5 19t45 -19t18.5 -45.5t-18.5 -45t-45 -18.5zM320 353v-32v32zM706.5 289q-26.5 0 -45.5 18.5t-19 45t19 45.5t45.5 19t45 -19t18.5 -45.5t-18.5 -45t-45 -18.5zM706 353v-32v32zM738.5 576
q-13.5 0 -23 9.5t-9.5 22.5q0 66 -60.5 113t-132.5 47q-75 0 -133 -44t-58 -116q0 -13 -9 -22.5t-22.5 -9.5t-23 9.5t-9.5 22.5q0 67 38 119.5t95.5 78.5t121.5 26q62 0 120.5 -28t97.5 -80.5t39 -115.5q0 -13 -9 -22.5t-22.5 -9.5z" />
    <glyph glyph-name="uniE73F" unicode="&#xe73f;" 
d="M384 416h-192q-40 0 -68 28t-28 68v192q0 40 28 68t68 28h192q40 0 68 -28t28 -68v-192q0 -40 -28 -68t-68 -28zM192 736q-13 0 -22.5 -9.5t-9.5 -22.5v-192q0 -13 9.5 -22.5t22.5 -9.5h192q13 0 22.5 9.5t9.5 22.5v192q0 13 -9.5 22.5t-22.5 9.5h-192zM384 -32h-192
q-40 0 -68 28t-28 68v192q0 40 28 68t68 28h192q40 0 68 -28t28 -68v-192q0 -40 -28 -68t-68 -28zM192 288q-13 0 -22.5 -9.5t-9.5 -22.5v-192q0 -13 9.5 -22.5t22.5 -9.5h192q13 0 22.5 9.5t9.5 22.5v192q0 13 -9.5 22.5t-22.5 9.5h-192zM832 -32h-192q-40 0 -68 28t-28 68
v64q0 40 28 68t68 28h192q40 0 68 -28t28 -68v-64q0 -40 -28 -68t-68 -28zM640 160q-13 0 -22.5 -9.5t-9.5 -22.5v-64q0 -13 9.5 -22.5t22.5 -9.5h192q13 0 22.5 9.5t9.5 22.5v64q0 13 -9.5 22.5t-22.5 9.5h-192zM832 288h-192q-40 0 -68 28t-28 68v320q0 40 28 68t68 28
h192q40 0 68 -28t28 -68v-320q0 -40 -28 -68t-68 -28zM640 736q-13 0 -22.5 -9.5t-9.5 -22.5v-320q0 -13 9.5 -22.5t22.5 -9.5h192q13 0 22.5 9.5t9.5 22.5v320q0 13 -9.5 22.5t-22.5 9.5h-192z" />
    <glyph glyph-name="uniE742" unicode="&#xe742;" 
d="M896 640h-288q-13 0 -22.5 9.5t-9.5 22.5t9.5 22.5t22.5 9.5h288q13 0 22.5 -9.5t9.5 -22.5t-9.5 -22.5t-22.5 -9.5zM896 480h-288q-13 0 -22.5 9.5t-9.5 22.5t9.5 22.5t22.5 9.5h288q13 0 22.5 -9.5t9.5 -22.5t-9.5 -22.5t-22.5 -9.5zM896 224h-288q-13 0 -22.5 9.5
t-9.5 22.5t9.5 22.5t22.5 9.5h288q13 0 22.5 -9.5t9.5 -22.5t-9.5 -22.5t-22.5 -9.5zM896 64h-288q-13 0 -22.5 9.5t-9.5 22.5t9.5 22.5t22.5 9.5h288q13 0 22.5 -9.5t9.5 -22.5t-9.5 -22.5t-22.5 -9.5zM384 416h-192q-40 0 -68 28t-28 68v192q0 40 28 68t68 28h192
q40 0 68 -28t28 -68v-192q0 -40 -28 -68t-68 -28zM192 736q-13 0 -22.5 -9.5t-9.5 -22.5v-192q0 -13 9.5 -22.5t22.5 -9.5h192q13 0 22.5 9.5t9.5 22.5v192q0 13 -9.5 22.5t-22.5 9.5h-192zM384 -32h-192q-40 0 -68 28t-28 68v192q0 40 28 68t68 28h192q40 0 68 -28t28 -68
v-192q0 -40 -28 -68t-68 -28zM192 288q-13 0 -22.5 -9.5t-9.5 -22.5v-192q0 -13 9.5 -22.5t22.5 -9.5h192q13 0 22.5 9.5t9.5 22.5v192q0 13 -9.5 22.5t-22.5 9.5h-192z" />
    <glyph glyph-name="uniE746" unicode="&#xe746;" 
d="M401 -64q-336 0 -336 162q0 37 34 67.5t84.5 49t111.5 28.5v6q-31 24 -51.5 57.5t-30 73t-13 74t-3.5 76.5q0 99 55 155t153 56h7q98 0 153 -56t55 -155q0 -42 -3.5 -76.5t-13 -74t-30 -73t-51.5 -57.5v-6q61 -10 111.5 -28.5t84.5 -49t34 -67.5q0 -24 -8.5 -45.5
t-32 -43.5t-61 -37.5t-101.5 -25.5t-148 -10zM405 677q-144 0 -144 -147q0 -39 3 -70t11 -64.5t25.5 -60t43.5 -42.5q15 -10 15 -27v-52q0 -12 -8.5 -21t-20.5 -10q-84 -9 -142.5 -36.5t-58.5 -48.5q0 -98 272 -98q91 0 155.5 11.5t98 33.5t33.5 53q0 21 -58.5 48.5
t-142.5 36.5q-13 1 -21 10t-8 21v52q0 17 15 27q26 16 43.5 42.5t25.5 60t11 64.5t3 70q0 73 -36 110t-108 37h-7zM899 132q-13 0 -22.5 9.5t-9.5 22.5t-26.5 33t-73.5 38.5t-97 23.5q-12 2 -20.5 11t-8.5 21v67q0 17 15 27q29 18 49 48t28.5 63.5t11.5 58t3 47.5
q0 40 -12 67.5t-33.5 41.5t-43.5 19.5t-48 5.5q-14 0 -23 9.5t-9 22.5t9 22.5t23 9.5q93 0 147 -53t54 -145q0 -27 -3.5 -55.5t-13.5 -67.5t-33 -75.5t-57 -62.5v-22q54 -10 104.5 -31.5t86 -54.5t35.5 -69q0 -13 -9.5 -22.5t-22.5 -9.5z" />
    <glyph glyph-name="uniE747" unicode="&#xe747;" 
d="M452 749l-340 -340q-10 -10 -24 -10t-23.5 9.5t-9.5 23.5t10 24l340 340q10 10 23.5 10t23.5 -10t10 -23.5t-10 -23.5zM924 277l-340 -340q-10 -10 -24 -10t-23.5 10t-9.5 23.5t10 23.5l340 340q10 10 23.5 10t23.5 -9.5t10 -23.5t-10 -24zM451 275l-103 -103
q-10 -10 -23.5 -10t-23.5 10t-10 23.5t10 23.5l103 103q10 10 23.5 10t23.5 -9.5t10 -23.5t-10 -24zM298 371l-74 -75q-10 -9 -24 -9t-23.5 9.5t-9.5 23.5t10 23l74 75q10 10 24 10t23.5 -10t9.5 -23.5t-10 -23.5zM545 124l-74 -75q-10 -9 -24 -9t-23.5 9.5t-9.5 23.5t9 23
l75 75q10 10 23.5 10t23.5 -10t10 -23.5t-10 -23.5zM536 -63l-471 471q-10 10 -10 24t9.5 23.5t23.5 9.5t24 -10l471 -471q10 -10 10 -24t-9.5 -23.5t-23.5 -9.5t-24 10zM732 132l-472 472q-9 10 -9 24t9.5 23.5t23.5 9.5t24 -10l471 -471q10 -10 10 -24t-9.5 -23.5
t-23.5 -9.5t-24 9zM912 677l-107 107q-10 10 -10 24t10 23.5t23.5 9.5t23.5 -10l107 -107q10 -10 10 -24t-9.5 -23.5t-23.5 -9.5t-24 10zM587 567l-182 182q-9 10 -9 23.5t9.5 23.5t23.5 10t24 -10l182 -182q9 -10 9 -23.5t-9.5 -23.5t-23.5 -10t-24 10zM877 277l-182 182
q-10 10 -10 24t10 23.5t24 9.5t23 -10l182 -182q10 -9 10 -23t-9.5 -23.5t-23.5 -9.5t-24 9zM959 677l-217 -218q-10 -9 -23.5 -9t-23.5 9.5t-10 23.5t10 24l217 217q10 9 24 9t23.5 -9.5t9.5 -23.5t-10 -23zM852 784l-218 -217q-9 -10 -23 -10t-24 10t-9.5 24t9.5 23
l218 217q9 10 23 10t23.5 -9.5t9.5 -23.5t-9 -24z" />
    <glyph glyph-name="uniE748" unicode="&#xe748;" 
d="M430 -61q-35 0 -60 25l-68 71q-9 9 -9 22.5t10 22.5q22 21 22 52q1 31 -21 53q-21 22 -52.5 22t-52.5 -20q-9 -10 -23 -10q-14 1 -23 10l-68 70q-24 25 -23 60q0 34 25 59l443 434q24 23 59.5 22.5t58.5 -24.5l69 -70q9 -9 8.5 -22.5t-9.5 -22.5q-22 -21 -23 -52
q0 -31 22 -53q20 -22 52 -22.5t53 20.5q8 8 23 9q13 0 22 -9l68 -70q25 -25 24 -60q0 -34 -25 -59l-443 -434q-25 -24 -59 -24zM368 59l48 -50q6 -6 14 -6t14 6l443 434q6 6 6 14q0 9 -5 14l-49 50q-32 -20 -71 -20q-58 0 -99 42q-40 41 -39 98q0 40 21 73l-48 50
q-6 5 -14 5.5t-14 -5.5l-444 -434q-5 -6 -6 -14q0 -9 6 -14l48 -50q33 19 72 19q58 0 99 -41q40 -42 39 -99q0 -39 -21 -72zM354 313q-13 0 -22.5 9.5t-9.5 22.5t9 23l179 178q10 10 23 10t22.5 -9.5t9.5 -23t-10 -22.5l-178 -179q-10 -9 -23 -9zM450 217q-13 0 -22.5 9.5
t-9.5 23t9 22.5l179 178q9 10 22.5 10t22.5 -9.5t9 -22.5t-9 -23l-179 -178q-9 -10 -22 -10z" />
    <glyph glyph-name="uniE749" unicode="&#xe749;" 
d="M928 352h-832q-13 0 -22.5 9.5t-9.5 22.5t9.5 22.5t22.5 9.5h832q13 0 22.5 -9.5t9.5 -22.5t-9.5 -22.5t-22.5 -9.5zM832 -32h-192q-13 0 -22.5 9.5t-9.5 22.5t9.5 22.5t22.5 9.5h192q13 0 22.5 9.5t9.5 22.5v160q0 13 9.5 22.5t22.5 9.5t22.5 -9.5t9.5 -22.5v-160
q0 -40 -28 -68t-68 -28zM352 -32h-160q-40 0 -68 28t-28 68v160q0 13 9.5 22.5t22.5 9.5t22.5 -9.5t9.5 -22.5v-160q0 -13 9.5 -22.5t22.5 -9.5h160q13 0 22.5 -9.5t9.5 -22.5t-9.5 -22.5t-22.5 -9.5zM128 512q-13 0 -22.5 9.5t-9.5 22.5v160q0 40 28 68t68 28h160
q13 0 22.5 -9.5t9.5 -22.5t-9.5 -22.5t-22.5 -9.5h-160q-13 0 -22.5 -9.5t-9.5 -22.5v-160q0 -13 -9.5 -22.5t-22.5 -9.5zM896 512q-13 0 -22.5 9.5t-9.5 22.5v160q0 13 -9.5 22.5t-22.5 9.5h-192q-13 0 -22.5 9.5t-9.5 22.5t9.5 22.5t22.5 9.5h192q40 0 68 -28t28 -68v-160
q0 -13 -9.5 -22.5t-22.5 -9.5z" />
    <glyph glyph-name="uniE74A" unicode="&#xe74a;" 
d="M608.5 -64q-13.5 0 -23 9.5t-9.5 22.5v480q0 12 9 21l208 235h-563l210 -235q8 -9 8 -21v-289l51 -41q10 -8 11.5 -21.5t-7 -23.5t-21.5 -11.5t-24 6.5l-62 51q-12 10 -12 25v292l-249 279q-14 15 -5.5 34t29.5 19h706q21 0 29.5 -19t-5.5 -34l-249 -279v-468
q0 -13 -9 -22.5t-22.5 -9.5z" />
    <glyph glyph-name="uniE74B" unicode="&#xe74b;" 
d="M608 128q-13 0 -22.5 9.5t-9.5 22.5v352q0 13 9.5 22.5t22.5 9.5t22.5 -9.5t9.5 -22.5v-352q0 -13 -9.5 -22.5t-22.5 -9.5zM416 128q-13 0 -22.5 9.5t-9.5 22.5v352q0 13 9.5 22.5t22.5 9.5t22.5 -9.5t9.5 -22.5v-352q0 -13 -9.5 -22.5t-22.5 -9.5zM928 672h-160v64
q0 40 -28 68t-67 28h-321q-40 0 -68 -28t-28 -68v-64h-160q-13 0 -22.5 -9.5t-9.5 -22.5t9.5 -22.5t22.5 -9.5h832q13 0 22.5 9.5t9.5 22.5t-9.5 22.5t-22.5 9.5zM320 736q0 13 9.5 22.5t22.5 9.5h321q13 0 22 -9.5t9 -22.5v-64h-384v64zM736 -64h-448q-40 0 -68 28t-28 68
v480q0 14 9.5 23t22.5 9t22.5 -9t9.5 -23v-480q0 -13 9.5 -22.5t22.5 -9.5h448q14 0 23 9.5t9 22.5v479q0 13 9.5 22.5t22.5 9.5t22.5 -9.5t9.5 -22.5v-479q0 -40 -28 -68t-68 -28z" />
    <glyph glyph-name="uniE74D" unicode="&#xe74d;" 
d="M210 5q-47 0 -80.5 33.5t-33.5 80.5v498q0 47 33.5 80.5t80.5 33.5h623q47 0 80 -33.5t33 -80.5v-498q0 -47 -33 -80.5t-80 -33.5h-623zM210 670q-22 0 -37.5 -15.5t-15.5 -37.5v-498q0 -22 15.5 -37.5t37.5 -15.5h623q21 0 36.5 15.5t15.5 37.5v498q0 22 -15.5 37.5
t-36.5 15.5h-623zM791 192q-13 0 -21.5 9t-8.5 22q0 39 -27.5 66.5t-66.5 27.5t-67 -27.5t-28 -66.5q0 -13 -8.5 -22t-21.5 -9t-21.5 9t-8.5 22q0 39 19 74t53 56q-31 33 -31 77q0 47 33.5 80.5t80.5 33.5t80 -33.5t33 -80.5q0 -44 -31 -77q34 -21 53.5 -56t19.5 -74
q0 -13 -9 -22t-22 -9zM666.5 483q-21.5 0 -37 -15.5t-15.5 -37.5t15.5 -37t37 -15t37 15t15.5 37t-15.5 37.5t-37 15.5zM435 482h-187q-13 0 -22.5 9.5t-9.5 22.5t9.5 22.5t22.5 9.5h187q13 0 22.5 -9.5t9.5 -22.5t-9.5 -22.5t-22.5 -9.5zM435 336h-187q-13 0 -22.5 9.5
t-9.5 22.5t9.5 22.5t22.5 9.5h187q13 0 22.5 -9.5t9.5 -22.5t-9.5 -22.5t-22.5 -9.5zM435 192h-187q-13 0 -22.5 9t-9.5 22.5t9.5 23t22.5 9.5h187q13 0 22.5 -9.5t9.5 -23t-9.5 -22.5t-22.5 -9z" />
    <glyph glyph-name="uniE74F" unicode="&#xe74f;" 
d="M512 832q-91 0 -174 -35.5t-143 -95.5t-95.5 -143t-35.5 -174t35.5 -174t95.5 -143t143 -95.5t174 -35.5t174 35.5t143 95.5t95.5 143t35.5 174t-35.5 174t-95.5 143t-143 95.5t-174 35.5zM512 0q-104 0 -192.5 51.5t-140 140t-51.5 192.5t51.5 192.5t140 140t192.5 51.5
t192.5 -51.5t140 -140t51.5 -192.5t-51.5 -192.5t-140 -140t-192.5 -51.5zM672 384h-160v224q0 13 -9.5 22.5t-22.5 9.5t-22.5 -9.5t-9.5 -22.5v-256q0 -13 9.5 -22.5t22.5 -9.5h192q13 0 22.5 9.5t9.5 22.5t-9.5 22.5t-22.5 9.5z" />
    <glyph glyph-name="uniE750" unicode="&#xe750;" 
d="M982 492l-409 320q-26 21 -62 21t-62 -21l-406 -321q-10 -8 -11.5 -21t6.5 -23.5t21 -12t24 6.5l13 11v-388q0 -40 34 -68t74 -28h640q37 0 60.5 26.5t23.5 69.5v389l14 -12q9 -7 20 -7q16 0 25 13q9 10 7 23t-12 22zM608 99v-67h-64h-64h-64v67v112q0 31 25 54t71 23
t71 -23t25 -54v-112z" />
    <glyph glyph-name="uniE751" unicode="&#xe751;" 
d="M980 491l-406 321q-26 21 -62 21t-62 -21l-406 -321q-10 -8 -11.5 -21t6.5 -23.5t21 -12t23 6.5l13 11v-388q0 -40 34.5 -68t74.5 -28h640q37 0 60 26.5t23 69.5v386l12 -9q8 -7 20 -7q15 0 25 13q8 10 6.5 23t-11.5 21zM480 32v177q0 14 32 14t32 -14v-177h-64zM864 64
q0 -32 -19 -32h-236h-1v1v176q0 31 -25 54.5t-71 23.5t-71 -23.5t-25 -54.5v-176v-1h1h-212q-15 0 -30 10.5t-15 21.5v438l329 260q9 7 22.5 7t22.5 -7l330 -261v-437z" />
    <glyph glyph-name="uniE752" unicode="&#xe752;" 
d="M953 -12l-152 163q96 115 96 265q0 113 -56 209t-152 151.5t-208.5 55.5t-208.5 -55.5t-151.5 -151.5t-55.5 -209t55.5 -208.5t151.5 -151.5t209 -56q90 0 172 37q12 6 16.5 18.5t-1 24.5t-18 16.5t-24.5 -0.5q-69 -32 -145 -32q-96 0 -177 47t-128 128.5t-47 177
t47 176.5t128 128t176.5 47t176.5 -47t128.5 -128t47.5 -177q0 -141 -98 -244q-10 -9 -9.5 -22.5t9.5 -22.5q1 0 2 -1t1.5 -1t1 -1.5t1.5 -2.5l166 -177q9 -10 23 -10q12 0 22 9t10.5 22t-9.5 23z" />
    <glyph glyph-name="uniE753" unicode="&#xe753;" 
d="M288 607h-205q-14 0 -24 10t-10 24t10 24t24 10h205q14 0 24.5 -10t10.5 -24t-10 -24t-25 -10zM280 270h-197q-14 0 -24 10t-10 24t10 24t24 10h197q14 0 24 -10t10 -24t-10 -24t-24 -10zM240 439h-157q-14 0 -24 10t-10 24t10 24t24 10h157q14 0 24 -10t10 -24t-10 -24
t-24 -10zM460 95h-377q-14 0 -24 10t-10 24t10 24t24 10h377q14 0 24 -10t10 -24t-10 -24t-24 -10zM421 470q0 87 61.5 148.5t148.5 61.5t149 -61.5t62 -148.5t-62 -148.5t-149 -61.5t-148.5 61.5t-61.5 148.5v0zM968 80l-148 192q85 82 85 198q0 113 -80 193t-193.5 80
t-194 -80t-80.5 -193t80.5 -193.5t193.5 -80.5q71 0 134 36l148 -194q11 -13 27 -13q12 0 21 7q11 9 13 23t-6 25v0zM779 471q0 -61 -43 -103.5t-103.5 -42.5t-103.5 42.5t-43 103.5t43 104t103.5 43t103.5 -43t43 -104z" />
    <glyph glyph-name="uniE754" unicode="&#xe754;" 
d="M968 80l-147 192q85 82 85 198q0 113 -80.5 193t-194 80t-193.5 -80t-80 -193t80 -193.5t194 -80.5q71 0 134 36l148 -194q10 -13 27 -13q12 0 21 7q11 9 13 23t-7 25zM421 470q0 87 62 148.5t149 61.5t148.5 -61.5t61.5 -148.5t-61.5 -148.5t-148.5 -61.5t-149 61.5
t-62 148.5zM288 607h-205q-14 0 -24 10t-10 24t10 24t24 10h205q15 0 25 -10t10 -24t-10 -24t-25 -10zM280 270h-197q-14 0 -24 10t-10 24t10 24t24 10h197q14 0 24 -10t10 -24t-10 -24t-24 -10zM240 439h-157q-14 0 -24 10t-10 24t10 24t24 10h157q14 0 24 -10t10 -24
t-10 -24t-24 -10zM460 95h-377q-14 0 -24 10t-10 24t10 24t24 10h377q14 0 24 -10t10 -24t-10 -24t-24 -10z" />
    <glyph glyph-name="uniE755" unicode="&#xe755;" 
d="M153 543l-51 -79l94 -58q1 -1 3 -2t8 -6t11 -10t10 -13t7 -17t0.5 -20.5t-7.5 -24.5q-12 -25 -53 -70.5t-76 -79t-35 -32.5l122 -77q26 57 47.5 102t27.5 58t11.5 27t13.5 40q18 49 17 89.5t-27 67.5q-36 35 -53 50t-70 55zM219.5 572q33.5 0 57 21.5t23.5 51.5t-23.5 51
t-57 21t-57 -21t-23.5 -51t23.5 -51.5t57 -21.5zM945 563q-1 5 -3 12t-13.5 26t-29.5 34.5t-55 29.5t-85 18.5t-124 -5t-168 -35.5l28 55l-112 32l-5 -16q-4 -11 -16.5 -40.5t-26 -55.5t-35 -56.5t-44.5 -50.5q5 -3 13 -7.5t25 -14.5t28.5 -16.5t11.5 -5.5q34 34 60 68
l52 22q-49 -89 -88 -130l47 -42q33 31 68 69h40v-70h-157v-56h157v-133h-6q-43 2 -55 21q-5 9 -6 22.5t1.5 33t2.5 25.5h-109l-4 -3q-1 -3 -2 -9.5t-2 -25t0.5 -35.5t8.5 -37.5t19.5 -35t35.5 -24t55 -8.5q168 -5 267 72l16 -60l89 38l-60 148l-73 -23l14 -50
q-25 -20 -63 -32v116h154v56h-154v70h154v56h-273q33 41 39 60l-48 13q319 116 318 -60v-318v-7q0 -4 -1 -15t-4 -21t-11 -22t-19.5 -20.5t-31.5 -13.5t-46 -3l-67 14l-16 -64q6 -2 16.5 -4.5t41.5 -6.5t59 -4.5t63.5 7t62 23t47 48t25.5 78.5q6 63 8 125t0 102.5t-5.5 77
t-5.5 48t-3 16.5z" />
    <glyph glyph-name="uniE756" unicode="&#xe756;" 
d="M517 -70q-13 0 -29 1q-88 5 -168 44q-83 40 -144 109t-90 156q-28 83 -22 172q5 88 44 169q40 82 109 143t156 90q70 24 143 24q13 0 29 -1q88 -6 169 -44q82 -40 143 -109q72 -81 99 -190v0q6 -19 -8 -31q-8 -8 -19 -8q-13 0 -22 10q-2 2 -4 6l-1 1v3q-23 92 -88 166
q-53 59 -122.5 93.5t-147.5 38.5q-14 1 -25 1q-72 0 -139 -25q-66 -25 -121 -73q-59 -52 -93 -121.5t-38.5 -148t20.5 -152t77 -132.5t121.5 -93t148.5 -39q14 -1 25 -1q72 0 138 25q67 25 121 73q96 85 124 211v1q1 10 9 18v1q9 7 20 7q12 0 20 -8q9 -8 9 -21v-2v-1
q-31 -150 -144 -249q-69 -61 -156 -90q-70 -24 -144 -24zM471 167v243l-4 -1q-31 -9 -59 -18q-10 -3 -29 -8q-32 -9 -41 -12l-1 -1v-128h-71v200h70v-30l4 2q6 2 28 7q25 6 35 9q32 10 66 17l2 1v51h-3q-60 -3 -107 -4q-13 0 -46 -1q-24 -1 -33 -1l-13 51q14 -1 51 -3
q36 -2 53 -2h16q60 3 115 11q60 7 113 19q50 10 110 28q3 -7 8 -19t7 -18q2 -4 2 -6q1 -1 2 -4t2 -4q2 -5 4 -11l1 -1q1 -4 4 -9q-50 -8 -101 -14q-21 -2 -84 -7q-16 -1 -27 -2h-3v-36l3 1q17 1 41.5 1t41.5 -1q48 -5 76 -17q28 -13 43 -28t19 -31q5 -13 7 -30l1 -12v-18
q0 -18 -1 -34q-2 -17 -7 -32.5t-14 -26.5t-24 -16q-9 -4 -20 -4q-8 0 -17 2q-21 3 -36 8q-17 5 -28 10q-13 5 -22 10l4 31q20 -10 35 -12h8h7q7 2 13.5 6.5t10.5 13.5q4 8 6 22q3 34 1 53q0 7 -1 10q0 4 -1 13q0 7 -4 13q-6 11 -24 21q-15 8 -41 8h-11q-15 -2 -24 -3
q-4 0 -13 -1q-23 -2 -27 -2l-2 -1v-253h-71v0z" />
    <glyph glyph-name="uniE757" unicode="&#xe757;" 
d="M777 120h2l1 1h3q2 0 5 -1h-11zM235 120q-5 -3 -10 -12q-5 -10 -9 -24q-3 -14 -5 -31q-3 -18 -3 -38q0 -12 2 -24q1 -12 2 -23h57q4 21 4 47q0 20 -2 38t-6 31q-3 14 -8 23.5t-11 12.5h-11zM777 120q-5 -3 -10 -12t-9 -24q-3 -14 -5 -31q-2 -18 -2 -38q0 -14 1 -24
q1 -15 2 -23h57q2 11 3 23t1 24q0 20 -2 38t-6 31q-3 14 -8 24q-5 9 -11 12h-11zM246 120q19 -1 36.5 -9.5t30 -22.5t19.5 -33t7 -39q0 -26 -11 -48h367q-11 22 -11 48q0 20 7 39q8 18 20 33q13 14 30 22q17 9 36 10h-531zM540 24l-10 -15q-2 -3 -7 -10t-5 -8q-1 0 -2 -1
t-4 -1t-4 1t-2 1q-2 3 -6 8l-6 10l-10 15q-4 6 -1 10t11 4h36q8 0 11 -4t-1 -10zM788 120q19 -1 36 -10q17 -8 30 -22.5t20 -32.5q7 -19 7 -39q0 -13 -3 -25q-2 -12 -8 -23h87v116v72v3q0 14 -2 34q-2 19 -6 35q-4 18 -12 32q-7 14 -19 21q-13 8 -26 6t-23 -8t-17.5 -13.5
t-9.5 -10.5q-7 -8 -20 -24t-17 -20q-18 -22 -41 -41t-50.5 -30.5t-62.5 -11.5h-22h-117h-1h-117h-22q-35 0 -62 12q-28 12 -50 30q-23 18 -42 41q-22 25 -37 44l-5 6l-9 9q-6 5 -13 9q-7 5 -15 7q-7 2 -17 1q-8 -1 -17 -6q-11 -7 -19 -21.5t-12 -31.5t-6 -35q-1 -19 -1 -34
q-1 -1 -1 -3v-72v-116h87q-5 11 -8 23t-3 25q0 20 7 39q7 18 20 33q13 14 30 22.5t36 9.5h553zM235 120h2l1 1h3h3q1 0 2 -1h-11zM928 320q-13 0 -22.5 9.5t-9.5 22.5v352q0 13 -9.5 22.5t-22.5 9.5h-704q-13 0 -22.5 -9.5t-9.5 -22.5v-352q0 -13 -9.5 -22.5t-22.5 -9.5
t-22.5 9.5t-9.5 22.5v352q0 40 28 68t68 28h704q40 0 68 -28t28 -68v-352q0 -13 -9.5 -22.5t-22.5 -9.5zM512 416q-93 0 -158.5 65.5t-65.5 158.5q0 13 9.5 22.5t22.5 9.5t22.5 -9.5t9.5 -22.5q0 -66 47 -113t113 -47t113 47t47 113q0 13 9.5 22.5t22.5 9.5t22.5 -9.5
t9.5 -22.5q0 -93 -65.5 -158.5t-158.5 -65.5z" />
    <glyph glyph-name="uniE759" unicode="&#xe759;" 
d="M890 146q-3 4 -13 19t-29.5 48t-35.5 67.5t-28.5 77t-12.5 76.5q0 118 -45.5 189t-117.5 98v15q0 40 -28 68t-68 28t-68 -28t-28 -68v-17q-19 -13 -12 -35q4 -13 16 -19t24 -2q27 9 57 9h22q86 0 135 -63.5t49 -174.5q0 -122 110 -294q-168 -76 -305 -76t-305 77
q110 170 110 293q0 94 35 154q7 11 3.5 24t-15 19.5t-24.5 3t-19 -14.5q-44 -75 -44 -186q0 -34 -13 -77.5t-27.5 -75t-36.5 -68.5t-28.5 -46.5t-13.5 -19.5q-8 -12 -5 -26t16 -21t35.5 -18t82 -33t115.5 -34q16 -50 52.5 -80.5t81 -30.5t81 30.5t53.5 80.5q121 26 233 84
q13 7 16 21q3 15 -5 26zM501 736l-21 -2v2q0 13 9.5 22.5t22.5 9.5t22.5 -9.5t9.5 -22.5v-1q-12 1 -21 1h-22zM512 -32q-34 0 -58 35q30 -3 58 -3q25 0 58 3q-24 -35 -58 -35z" />
    <glyph glyph-name="uniE75A" unicode="&#xe75a;" 
d="M986 306q-8 11 -21 13t-24 -6l-57 -41q15 55 15 111q0 113 -56 209t-152 152t-209 56t-209 -56t-152 -152t-56 -209t56 -209t152 -152t209 -56q111 0 207 55q6 1 10 4q27 16 51 36q10 8 11.5 21t-7 23.5t-21.5 12t-24 -7.5q-17 -14 -40 -28l-6 -2q-83 -50 -181 -50
q-96 0 -177 47.5t-128.5 128.5t-47.5 177t47.5 177t129 128.5t177 47.5t177 -47.5t128.5 -128.5t47 -177q0 -66 -24 -128l-45 109q-5 12 -17.5 17t-24.5 0t-17 -17.5t0 -24.5l72 -173l3 -5v-1h1v-1q4 -5 10 -8l2 -1q6 -3 11 -3h2v-1h1l2 1q3 0 7 1h1q4 2 7 4h1l152 109
q10 8 12.5 21t-5.5 24zM607 522q9 9 9.5 22t-9 22.5t-22.5 10t-23 -9.5l-80 -77l-79 77q-10 10 -23 9.5t-22.5 -10t-9 -22.5t9.5 -22l90 -87v-19h-64q-13 0 -22.5 -9.5t-9.5 -22.5t9.5 -22.5t22.5 -9.5h64v-32h-64q-13 0 -22.5 -9.5t-9.5 -22.5t9.5 -22.5t22.5 -9.5h64v-67
q0 -13 9.5 -22.5t22.5 -9.5t22.5 9.5t9.5 22.5v67h64q13 0 22.5 9.5t9.5 22.5t-9.5 22.5t-22.5 9.5h-64v32h64q13 0 22.5 9.5t9.5 22.5t-9.5 22.5t-22.5 9.5h-64v14z" />
    <glyph glyph-name="uniE75B" unicode="&#xe75b;" 
d="M512 829q-123 0 -228 -63q-60 66 -159 66q-19 0 -28 -16.5t1 -32.5q3 -5 9 -16t17 -44t15 -68q-4 -16 -19 -50.5t-18 -43.5q-38 -103 -38 -180q0 -91 35.5 -174t95.5 -143t143 -95.5t174 -35.5t174 35.5t143 95.5t95.5 143t35.5 174t-35.5 174t-95.5 143t-143 95.5
t-174 35.5zM576 416q0 -20 -14 -34t-34 -14t-34 14t-14 34v64q0 20 14 34t34 14t34 -14t14 -34v-64zM767 416q0 -20 -14 -34t-34 -14t-34 14t-14 34v64q0 20 14 34t34 14t34 -14t14 -34v-64z" />
    <glyph glyph-name="uniE75C" unicode="&#xe75c;" 
d="M528 368q-20 0 -34 14t-14 34v64q0 20 14 34t34 14t34 -14t14 -34v-64q0 -20 -14 -34t-34 -14zM719 368q-20 0 -34 14t-14 34v64q0 20 14 34t34 14t34 -14t14 -34v-64q0 -20 -14 -34t-34 -14zM512 828q-123 0 -229 -62q-60 66 -158 66q-19 0 -28 -16.5t1 -32.5
q3 -5 9.5 -17.5t17.5 -47.5t15 -72q1 -12 10.5 -20.5t21.5 -8.5q2 0 3 1q13 1 21.5 11t7.5 24q-6 54 -25 106q46 -15 70 -53h1v-1q1 -1 2.5 -2t1.5 -2q4 -4 5 -4q1 -1 3 -1.5t2.5 -1t2.5 -1t3 -1t6 -0.5h3h3q1 0 6 2t6 3v0q98 68 218 68q104 0 192.5 -51.5t140 -140
t51.5 -192.5t-51.5 -192.5t-140 -140t-192.5 -51.5t-192.5 51.5t-140 140t-51.5 192.5q0 82 33 155q6 13 1 25t-17 17.5t-24.5 1t-17.5 -16.5q-39 -87 -39 -182q0 -91 35.5 -174t95.5 -143t143 -95.5t174 -35.5t174 35.5t143 95.5t95.5 143t35.5 174t-35.5 173.5
t-95.5 142.5t-143 95.5t-174 35.5z" />
    <glyph glyph-name="uniE75D" unicode="&#xe75d;" 
d="M877 24q-18 9 -47 23t-93 38t-97 27v23q89 39 142 125t53 195q0 94 -43.5 173.5t-118.5 125.5t-163 46t-163 -46.5t-118.5 -125.5t-43.5 -173q0 -110 54 -197t145 -124v-22h-1q-31 -2 -90 -24t-102.5 -42.5t-43.5 -21.5l-5 -6q-4 -3 -9.5 -11.5t-4.5 -14.5q2 -10 10 -17
t19 -7h266h178h265q11 0 19 6.5t11 16.5q0 4 -1.5 9t-4 9t-5.5 7l-5 6z" />
    <glyph glyph-name="uniE75F" unicode="&#xe75f;" 
d="M352 320h-128q-13 0 -22.5 9.5t-9.5 22.5t9.5 22.5t22.5 9.5h96v96q0 13 9.5 22.5t22.5 9.5t22.5 -9.5t9.5 -22.5v-128q0 -13 -9.5 -22.5t-22.5 -9.5zM702 229q-46 0 -81.5 -28.5t-45.5 -72.5h-124q-10 44 -45.5 72.5t-81.5 28.5q-54 0 -92.5 -38.5t-38.5 -92.5
t38.5 -92.5t92.5 -38.5q44 0 79 27t47 70h126q12 -43 46.5 -70t79.5 -27q54 0 92.5 38.5t38.5 92.5t-38.5 92.5t-92.5 38.5zM323.5 31q-27.5 0 -47 19.5t-19.5 47.5t19.5 47.5t47 19.5t47.5 -19.5t20 -47.5t-20 -47.5t-47.5 -19.5zM702 31q-28 0 -47.5 19.5t-19.5 47.5
t19.5 47.5t47.5 19.5t47.5 -19.5t19.5 -47.5t-19.5 -47.5t-47.5 -19.5zM864 800h-464q-33 0 -56.5 -23.5t-23.5 -56.5v-92l-195 -98l-4 -2q-56 -40 -56 -112v-322q0 -13 9.5 -22.5t23 -9.5t22.5 9.5t9 22.5v322q0 38 27 58l210 105l2 2l2 1q4 3 5 4q2 2 4 5q2 5 3 6q0 1 1 6
q0 1 0.5 2.5t0.5 2.5v112q0 7 4.5 11.5t11.5 4.5h464q13 0 22.5 -9.5t9.5 -22.5v-608q0 -13 9.5 -22.5t22.5 -9.5t22.5 9.5t9.5 22.5v608q0 39 -28 67.5t-68 28.5z" />
    <glyph glyph-name="uniE760" unicode="&#xe760;" 
d="M736 768q-102 0 -176 -71q-6 -5 -48 -47l-47 47q-74 71 -177 71q-106 0 -181 -75t-75 -181q0 -100 77 -182l317 -321q41 -41 86 -41t87 41l317 320l2 3q25 31 37.5 49.5t24.5 54t12 76.5q0 106 -75 181t-181 75z" />
    <glyph glyph-name="uniE761" unicode="&#xe761;" 
d="M512 -32q-45 0 -87 41l-319 323q-25 31 -37.5 49.5t-24.5 54t-12 76.5q0 106 75 181t181 75q81 0 147 -47q11 -7 13.5 -20t-5.5 -24t-21 -13.5t-24 5.5q-49 35 -110 35q-79 0 -135.5 -56.5t-56.5 -135.5q0 -42 13 -69.5t46 -69.5l316 -318q22 -23 41 -23t42 23l316 320
q58 63 58 137q0 80 -56 136t-136 56q-74 0 -129 -50l-134 -134q-10 -10 -23 -10t-22.5 9.5t-9.5 23t9 22.5l135 135q75 68 174 68q106 0 181 -75t75 -181q0 -100 -76 -181l-317 -321q-42 -42 -87 -42z" />
    <glyph glyph-name="uniE762" unicode="&#xe762;" 
d="M511.5 829q-121.5 0 -224.5 -51.5t-163 -140t-60 -192.5q0 -88 45.5 -166.5t128.5 -135.5l84 -52q-6 -37 -33 -115q-7 -20 8 -35q9 -8 22 -8q7 0 13 3q28 12 57.5 27t70.5 43.5t59 54.5q120 2 221.5 53.5t160.5 139.5t59 191q0 104 -60 192.5t-163.5 140t-225 51.5z
M580 352h-195q-13 0 -22.5 9.5t-9.5 22.5t9.5 22.5t22.5 9.5h195q13 0 22.5 -9.5t9.5 -22.5t-9.5 -22.5t-22.5 -9.5zM641 480h-256q-13 0 -22.5 9.5t-9.5 22.5t9.5 22.5t22.5 9.5h256q13 0 22.5 -9.5t9.5 -22.5t-9.5 -22.5t-22.5 -9.5z" />
    <glyph glyph-name="uniE764" unicode="&#xe764;" 
d="M951 590q11 -6 16 -17q6 -10 6 -20t-5.5 -19t-15.5 -13q-11 -4 -16 -11.5t-6 -16.5q0 -8 4 -17q5 -8 15 -14t14 -16q5 -10 4.5 -19.5t-5.5 -17.5q-4 -9 -13 -10q-8 -2 -12 -8q-3 -6 -3 -14t3.5 -15.5t11.5 -10.5t12 -12q5 -9 5.5 -18.5t-2.5 -18.5t-9 -13
q-20 -11 -20 -26t20 -29q4 -3 8 -11q3 -8 3 -16t-4 -14t-14 -6h-54q-6 0 -6.5 1t1.5 4t5 5.5t5 6.5q5 14 0 24t-17 16q-8 4 -11 13q-4 7 -4 17q1 9 4 15.5t9 9.5q8 3 12 11t4 17t-3 16t-9 10q-8 4 -13 12q-4 8 -4 18q0 9 4 18.5t13 15.5q6 4 10 10.5t4 15.5q1 7 -2.5 14.5
t-12.5 12.5q-10 5 -15 14q-4 9 -4 19t4 19q5 9 13 14q17 8 18.5 23.5t-2.5 28.5q-3 10 -12 17q-9 8 -23 8h-480v78h563q7 0 12 -5t6.5 -12t-1 -14t-9.5 -12q-6 -5 -10 -13q-5 -8 -5.5 -16.5t2.5 -16.5t11 -12zM134 638q0 19 15.5 36t33.5 17h138v-79h-187v26zM228 77h-55
q-22 0 -43.5 0.5t-29.5 0.5q-27 -1 -38 9t-11 38v141q0 10 4 16q3 5 14 7q4 0 11 3t14 9.5t12 17t5 24.5q0 23 -13 35q-12 13 -26 15q-11 2 -16 7q-5 4 -5 15v104q0 26 9 37.5t40 11.5h128v-491zM828 562q5 -7 5.5 -14.5t-3.5 -15.5t-13 -11t-14.5 -10t-6.5 -15t4 -16
t17 -12q9 -4 14.5 -12t6 -16t-4.5 -15q-4 -8 -14 -11q-12 -3 -18.5 -11.5t-7 -17t5 -17.5t16.5 -13q10 -4 15 -11.5t5.5 -16.5t-3.5 -17t-12 -12q-25 -12 -26 -28.5t19 -26.5q9 -3 14.5 -11.5t5.5 -18.5q1 -9 -3 -16t-13 -11q-12 -2 -19 -10q-6 -8 -7 -17q0 -9 5 -18
q6 -9 18 -15q8 -3 11 -12q4 -8 3 -16t-5 -14q-5 -7 -13 -7h-523v491h529q8 0 12 -6zM498 394q-1 66 -64 67q-65 -2 -65 -67v-17q3 -63 65 -65q61 1 64 65v17zM603 471q-16 3 -27 -24l-117 -232q-5 -10 -5 -14q5 -10 18 -13q13 -1 28 21l117 232q4 10 4 16q-4 11 -18 14z
M706 278q-2 66 -65 67q-64 -2 -64 -67v-17q2 -60 64 -62q62 2 65 62v17zM641 227q-22 -2 -20 44q-2 43 20 43q21 1 19 -43q2 -47 -19 -44zM434 344q-22 -3 -19 42q-3 46 19 45q20 0 20 -44.5t-20 -42.5z" />
    <glyph glyph-name="uniE768" unicode="&#xe768;" 
d="M511.5 832q-95.5 0 -176.5 -47t-128 -128.5t-47 -176.5q0 -52 34 -127t76.5 -137t98 -131t79.5 -95t41 -44q9 -10 23 -10h1q14 0 23 11l109 125q219 268 219 408q0 95 -47 176.5t-128.5 128.5t-177 47zM512 320q-66 0 -113 47t-47 113t47 113t113 47t113 -47t47 -113
t-47 -113t-113 -47z" />
    <glyph glyph-name="uniE769" unicode="&#xe769;" 
d="M511.5 288q-79.5 0 -135.5 56.5t-56 135.5t56.5 135.5t135.5 56.5t135.5 -56.5t56.5 -135.5t-56.5 -135.5t-136 -56.5zM512 608q-53 0 -90.5 -37.5t-37.5 -90.5t37.5 -90.5t90.5 -37.5t90.5 37.5t37.5 90.5t-37.5 90.5t-90.5 37.5zM512 -64q-13 0 -22 9q-10 9 -10 22
t9 23q39 41 86 97.5t100.5 129.5t89 144.5t35.5 118.5q0 119 -84.5 203.5t-203.5 84.5t-203.5 -84.5t-84.5 -203.5q0 -57 53 -151.5t151 -216.5q9 -10 7.5 -23t-11.5 -21.5t-23.5 -7t-21.5 11.5q-219 268 -219 408q0 95 47 176.5t128 128.5t176.5 47t177 -47t128.5 -128.5
t47 -176.5q0 -52 -34 -127t-76.5 -137t-98 -131t-79.5 -95t-41 -44q-10 -10 -23 -10z" />
    <glyph glyph-name="uniE76A" unicode="&#xe76a;" 
d="M792.5 430.5q-9.5 9.5 -22.5 9.5t-22 -10l-208 -208v566q0 13 -9.5 22.5t-23 9.5t-22.5 -9.5t-9 -22.5v-564l-207 206q-9 9 -22 9t-22.5 -9t-9.5 -22.5t9 -22.5l260 -259q4 -5 11 -8q6 -2 13 -2h1h2q13 0 23 10l259 259q9 9 9 22.5t-9.5 23zM893 20.5q0 -13.5 -9.5 -23
t-22.5 -9.5h-704q-14 0 -23 9.5t-9 23t9 22.5t23 9h704q13 0 22.5 -9t9.5 -22.5z" />
    <glyph glyph-name="uniE76B" unicode="&#xe76b;" 
d="M778 292q9 -9 22.5 -9t23 9.5t9.5 22.5t-10 23l-283 285q-9 17 -28 17q-22 0 -30 -22l-251 -250q-9 -9 -9 -22.5t9.5 -23t22.5 -9.5t22 10l204 203v-558q0 -13 9.5 -22.5t22.5 -9.5t22.5 9.5t9.5 22.5v560zM896 736q0 13 -9.5 22.5t-22.5 9.5h-704q-13 0 -22.5 -9.5
t-9.5 -22.5t9.5 -22.5t22.5 -9.5h704q13 0 22.5 9.5t9.5 22.5zM817.5 224q-59.5 0 -102 -42.5t-42.5 -102t42.5 -101.5t102 -42t101.5 42t42 101.5t-42 102t-101.5 42.5zM897 80q0 -17 -6 -32l-105 105q15 7 31 7q33 0 56.5 -23.5t23.5 -56.5zM737 80q0 12 5 26l102 -101
q-14 -5 -27 -5q-33 0 -56.5 23.5t-23.5 56.5z" />
    <glyph glyph-name="uniE76C" unicode="&#xe76c;" 
d="M796 372l-259 259q-9 9 -23 9h-1q-1 1 -2 1q-6 0 -13 -3q-6 -2 -11 -7l-259 -259q-10 -10 -10 -23t9.5 -22.5t22.5 -9.5t23 9l206 207v-564q0 -13 9.5 -22.5t22.5 -9.5t22.5 9.5t9.5 22.5v565l208 -208q9 -9 22.5 -9t23 9.5t9.5 22.5t-10 23zM864 704h-704
q-13 0 -22.5 9.5t-9.5 22.5t9.5 22.5t22.5 9.5h704q13 0 22.5 -9.5t9.5 -22.5t-9.5 -22.5t-22.5 -9.5z" />
    <glyph glyph-name="uniE76F" unicode="&#xe76f;" 
d="M512 -64q-185 0 -316.5 131.5t-131.5 316.5t131.5 316.5t316.5 131.5t316.5 -131.5t131.5 -316.5t-131.5 -316.5t-316.5 -131.5zM512 768q-159 0 -271.5 -112.5t-112.5 -271.5t112.5 -271.5t271.5 -112.5t271.5 112.5t112.5 271.5t-112.5 271.5t-271.5 112.5zM694 438
l-158 160q-15 15 -35 7l-1 -1h-1q-6 -3 -8 -6v0l-160 -159q-9 -9 -9 -22.5t9 -23t22.5 -9.5t22.5 10l104 103v-305q0 -13 9.5 -22.5t22.5 -9.5t22.5 9.5t9.5 22.5v307l105 -106q9 -10 23 -10q13 0 22.5 9.5t9.5 22.5t-10 23z" />
    <glyph glyph-name="uniE770" unicode="&#xe770;" 
d="M896 192q-13 0 -22.5 -9.5t-9.5 -22.5v-128h-704v128q0 13 -9.5 22.5t-22.5 9.5t-22.5 -9.5t-9.5 -22.5v-160q0 -13 9.5 -22.5t22.5 -9.5h768q13 0 22.5 9.5t9.5 22.5v160q0 13 -9.5 22.5t-22.5 9.5zM796 531l-259 259q-9 9 -23 9l-1 1h-2q-6 0 -13 -3q-6 -2 -11 -7
l-259 -259q-10 -10 -10 -23t9.5 -22.5t22.5 -9.5t23 10l206 206v-564q0 -13 9.5 -22.5t22.5 -9.5t22.5 9.5t9.5 22.5v565l208 -207q9 -10 22.5 -10t23 9.5t9.5 22.5t-10 23z" />
    <glyph glyph-name="uniE771" unicode="&#xe771;" 
d="M325 34zM882 34zM236 19zM960 19zM64 107zM958 107zM65 37zM163 607q-31 0 -44.5 -31t9.5 -54l349 -350q15 -15 35 -15t35 15l349 350q23 22 10 53.5t-45 31.5h-698zM960 37z" />
    <glyph glyph-name="uniE774" unicode="&#xe774;" 
d="M512 -64q-185 0 -316.5 131.5t-131.5 316.5t131.5 316.5t316.5 131.5t316.5 -131.5t131.5 -316.5t-131.5 -316.5t-316.5 -131.5zM512 768q-159 0 -271.5 -112.5t-112.5 -271.5t112.5 -271.5t271.5 -112.5t271.5 112.5t112.5 271.5t-112.5 271.5t-271.5 112.5z
M694.5 373.5q-9.5 9.5 -23 9.5t-22.5 -9l-105 -104v307q0 13 -9.5 22.5t-22.5 9.5t-22.5 -9.5t-9.5 -22.5v-309l-105 107q-10 9 -23 9.5t-22.5 -9t-9.5 -23t9 -22.5l160 -161q9 -10 23 -10q13 0 22 9v1l160 159q10 10 10 23t-9.5 22.5z" />
    <glyph glyph-name="uniE777" unicode="&#xe777;" 
d="M512 832q-185 0 -316.5 -131.5t-131.5 -316.5t131.5 -316.5t316.5 -131.5t316.5 131.5t131.5 316.5t-131.5 316.5t-316.5 131.5zM662 360l-160 -158q-10 -10 -23 -10t-22.5 9.5t-9.5 23t10 22.5l137 136l-136 137q-10 9 -10 22.5t9.5 22.5t23 9t22.5 -9l159 -160v0
q4 -4 7 -10q8 -20 -7 -35z" />
    <glyph glyph-name="uniE778" unicode="&#xe778;" 
d="M512 -64q-185 0 -316.5 131.5t-131.5 316.5t131.5 316.5t316.5 131.5t316.5 -131.5t131.5 -316.5t-131.5 -316.5t-316.5 -131.5zM512 768q-159 0 -271.5 -112.5t-112.5 -271.5t112.5 -271.5t271.5 -112.5t271.5 112.5t112.5 271.5t-112.5 271.5t-271.5 112.5zM669 395
q-3 6 -7 10v0l-159 160q-9 9 -22.5 9t-23 -9t-9.5 -22.5t10 -22.5l136 -137l-138 -136q-9 -9 -9 -22.5t9.5 -23t22.5 -9.5t22 10l161 158q15 15 7 35z" />
    <glyph glyph-name="uniE779" unicode="&#xe779;" 
d="M672 -16q-20 0 -34 14l-352 352q-14 14 -14 34t14 34l352 352q14 14 34 14t34 -14t14 -34t-14 -34l-318 -318l318 -318q14 -14 14 -34t-14 -34t-34 -14z" />
    <glyph glyph-name="uniE77A" unicode="&#xe77a;" 
d="M512 -64q-185 0 -316.5 131.5t-131.5 316.5t131.5 316.5t316.5 131.5t316.5 -131.5t131.5 -316.5t-131.5 -316.5t-316.5 -131.5zM512 768q-159 0 -271.5 -112.5t-112.5 -271.5t112.5 -271.5t271.5 -112.5t271.5 112.5t112.5 271.5t-112.5 271.5t-271.5 112.5zM290 372
l1 -1q2 -6 6 -10v0l159 -159q10 -10 23 -10t22.5 9.5t9.5 22.5t-9 23l-104 103h305q14 0 23 9.5t9 23t-9 22.5t-23 9h-306l106 105q9 10 9 23t-9 22.5t-23 9.5q-13 0 -22 -9l-161 -159q-15 -15 -7 -34z" />
    <glyph glyph-name="uniE77E" unicode="&#xe77e;" 
d="M860 689h-351q0 39 -28 67t-67 28h-64q-40 0 -68 -28t-28 -67h-96q-39 0 -67 -28.5t-28 -67.5v-511q0 -39 28 -67.5t67 -28.5h702q40 0 68 28.5t28 67.5v511q0 39 -28 67.5t-68 28.5zM509.5 146q-79.5 0 -135.5 56t-56 135.5t56 135.5t135.5 56t135.5 -56t56 -135.5
t-56 -135.5t-135.5 -56zM812.5 465q-19.5 0 -33.5 14t-14 34t14 34t33.5 14t33.5 -14t14 -34t-14 -34t-33.5 -14z" />
    <glyph glyph-name="uniE781" unicode="&#xe781;" 
d="M516 -73q-150 0 -271 90q-72 55 -117.5 131.5t-58.5 166.5t9 176.5t76 159.5q74 98 185 145t231 33t218 -87q63 -47 106.5 -113t61.5 -142q3 -13 -3.5 -24.5t-20 -14.5t-24.5 4t-15 20q-32 135 -144 218q-84 63 -186.5 75t-198 -28.5t-158.5 -124.5q-46 -62 -65 -136.5
t-8 -151t50 -142.5t101 -113q84 -63 187 -75t198 28.5t158 124.5q51 68 69 149q3 13 14 20.5t24 4.5t20.5 -14t4.5 -24q-21 -96 -80 -175q-54 -72 -131 -117.5t-167 -58.5q-32 -5 -65 -5z" />
    <glyph glyph-name="uniE783" unicode="&#xe783;" 
d="M243 288q-13 0 -22 9q-10 9 -10 22t9 23q58 60 134 92t160 32q82 0 157 -31t133 -89q9 -9 9 -22t-9 -22.5t-22.5 -9.5t-22.5 9q-102 101 -245 101q-146 0 -248 -104q-10 -10 -23 -10zM96 450q-13 0 -22.5 9.5t-9.5 22.5t9 23q88 88 202 135.5t239 47.5q123 0 235.5 -46
t200.5 -133q10 -9 10 -22.5t-9.5 -23t-22.5 -9.5t-23 9q-79 78 -180 119.5t-211 41.5q-112 0 -214 -42.5t-181 -122.5q-9 -9 -23 -9zM510 80q-13 0 -22 9l-95 88q-9 9 -10 22t8 22q47 56 119 56q75 0 123 -60q8 -10 7 -23t-11 -21l-98 -85q-9 -8 -21 -8zM463 199l47 -44
l50 42q-22 14 -48.5 15t-48.5 -13z" />
    <glyph glyph-name="uniE784" unicode="&#xe784;" 
d="M516 544h-6l-355 64q-12 2 -19.5 11t-7.5 21v96q0 39 28.5 67.5t67.5 28.5h576q40 0 68 -28t28 -68v-96q0 -12 -7.5 -21t-18.5 -11l-348 -64h-6zM192 667l324 -59l316 59v69q0 13 -9.5 22.5t-22.5 9.5h-576q-13 0 -22.5 -9.5t-9.5 -22.5v-69zM800 -64h-576
q-40 0 -68 28.5t-28 67.5v480q0 13 9.5 22.5t22.5 9.5t22.5 -9.5t9.5 -22.5v-480q0 -13 9.5 -22.5t22.5 -9.5h576q13 0 22.5 9.5t9.5 22.5v480q0 13 9.5 22.5t22.5 9.5t22.5 -9.5t9.5 -22.5v-480q0 -39 -28.5 -67.5t-67.5 -28.5zM608 256q13 0 22.5 9.5t9.5 22.5t-9.5 22.5
t-22.5 9.5h-52l76 73q10 10 10 23t-9 22.5t-22.5 9.5t-22.5 -9l-77 -73l-73 73q-9 9 -22.5 9t-23 -9.5t-9 -22.5t9.5 -22l74 -74h-51q-14 0 -23 -9.5t-9 -22.5t9 -22.5t23 -9.5h64v-32h-64q-14 0 -23 -9.5t-9 -22.5t9 -22.5t23 -9.5h64v-64q0 -14 9.5 -23t22.5 -9t22.5 9
t9.5 23v64h64q13 0 22.5 9.5t9.5 22.5t-9.5 22.5t-22.5 9.5h-64v32h64z" />
    <glyph glyph-name="uniE787" unicode="&#xe787;" 
d="M631 277v16q118 83 118 298q0 105 -61.5 164t-171.5 59h-8q-110 0 -171.5 -59t-61.5 -164q0 -215 118 -297v-17q-70 -10 -128.5 -29.5t-98 -52t-39.5 -70.5q0 -171 385 -171t385 171q0 38 -39.5 70.5t-98 52t-128.5 29.5z" />
    <glyph glyph-name="uniE788" unicode="&#xe788;" 
d="M512 -46q-385 0 -385 171q0 39 39.5 71.5t98 52t128.5 28.5v17q-119 83 -119 297q0 105 62 164t172 59h8q109 0 171 -59t62 -164q0 -214 -118 -297v-17q70 -9 128.5 -28.5t98 -52t39.5 -71.5q0 -171 -385 -171zM508 754q-33 0 -61 -6.5t-55 -23.5t-42.5 -51t-15.5 -82
q0 -193 104 -256q15 -8 15 -25v-59q0 -12 -8 -20.5t-19 -9.5q-101 -10 -170.5 -41t-69.5 -55q0 -33 29 -56t79.5 -34.5t103 -16t114.5 -4.5t114.5 4.5t103 16t79.5 34.5t29 56q0 25 -69.5 55.5t-170.5 40.5q-12 2 -19.5 10.5t-7.5 19.5l2 60q0 16 14 25q103 62 103 255
q0 49 -15.5 82.5t-42.5 50.5t-55 24t-61 7z" />
    <glyph glyph-name="uniE78A" unicode="&#xe78a;" 
d="M960 317q0 46 -31 76l-313 319q-34 34 -51.5 49.5t-45 35.5t-54 27.5t-58.5 7.5h-142q-64 0 -104 -11.5t-61.5 -39t-29 -62.5t-7.5 -93v-154q0 -58 14.5 -87t62.5 -75l352 -343q30 -29 77 -29t77 28l283 275q31 30 31 76zM410 574.5q0 -42.5 -30.5 -73t-73 -30.5
t-73 30.5t-30.5 73t30.5 73t73 30.5t73 -30.5t30.5 -73z" />
    <glyph glyph-name="uniE78B" unicode="&#xe78b;" 
d="M410 577.5q0 -42.5 -30 -73t-73 -30.5t-73 30.5t-30 73t30 73t73 30.5t73 -30.5t30 -73zM341 577.5q0 14.5 -10 24.5t-24 10t-24 -10t-10 -24.5t10 -24.5t24 -10t24 10t10 24.5zM616 712l313 -317q31 -31 31 -77t-31 -76l-283 -276q-30 -28 -77 -28t-77 29l-352 344
q-47 46 -61.5 75.5t-14.5 87.5v151q0 58 7.5 93.5t28.5 63t61 39t104 11.5h142q32 0 58.5 -7.5t54 -27.5t45 -35.5t51.5 -49.5zM598 16l283 276q10 10 10 26q0 18 -11 28l-284 289l-28 28q-59 58 -90 79t-71 21h-142q-32 0 -52.5 -1.5t-36.5 -8t-23.5 -14.5t-12.5 -25.5
t-6 -36.5t-1 -52v-151q0 -42 8 -58.5t47 -54.5l352 -345q11 -11 29 -11t29 11z" />
    <glyph glyph-name="uniE78C" unicode="&#xe78c;" 
d="M929 609h-75q12 0 24 19.5t19 42.5q14 46 -17 87q-2 3 -4 5q-28 24 -62.5 31.5t-64 3t-62 -17.5t-53.5 -26t-41 -27q-11 -8 -13.5 -21t5 -24t20.5 -13.5t24 5.5l1 1l2 1q17 12 36.5 23.5t49.5 24t60.5 11.5t52.5 -19q9 -13 5 -26q-6 -17 -24 -32.5t-32 -20.5
q-63 -24 -105 -27q-1 0 -3 -0.5t-3 -0.5h-88q-1 0 -2 3q-2 2 -2 3q-109 101 -127 114q-89 60 -165.5 69t-128.5 -35q-2 -2 -4 -5q-31 -41 -17 -87q7 -23 19 -42.5t24 -19.5h-82q-13 0 -23 -10t-10 -23v-160q0 -9 0.5 -13t3.5 -9.5t10 -7.5t18 -2v-313q0 -42 27.5 -72.5
t66.5 -30.5h645q39 0 66.5 30.5t27.5 72.5v313q21 0 26.5 7.5t5.5 24.5v160q0 14 -9 23.5t-22 9.5zM357 610q-42 3 -107 28q-13 4 -31 19.5t-23 32.5q-4 14 5 27q22 17 53 19t62.5 -10t54.5 -24.5t44 -27.5q3 -1 74 -65h-127q-1 0 -3 1h-2zM896 545v-96h-765l-4 -1v97h769z
M834 32h-645q-12 0 -21 12.5t-9 26.5v314h705v-314q0 -15 -9 -27t-21 -12z" />
    <glyph glyph-name="uniE78D" unicode="&#xe78d;" 
d="M416 672q0 40 28 68t68 28t68 -28t28 -68t-28 -68t-68 -28t-68 28t-28 68zM416 384.5q0 39.5 28 67.5t68 28t68 -28t28 -67.5t-28 -68t-68 -28.5t-68 28.5t-28 68zM416 96q0 40 28 68t68 28t68 -28t28 -68t-28 -68t-68 -28t-68 28t-28 68z" />
    <glyph glyph-name="uniE78E" unicode="&#xe78e;" 
d="M350 599h575q15 0 25.5 11t10.5 25.5t-10.5 25t-25.5 10.5h-575q-14 0 -25 -10.5t-11 -25t11 -25.5t25 -11zM925 420h-575q-14 0 -25 -10.5t-11 -25.5t11 -25.5t25 -10.5h575q15 0 25.5 10.5t10.5 25.5t-10.5 25.5t-25.5 10.5zM925 169h-575q-14 0 -25 -10.5t-11 -25.5
t11 -25.5t25 -10.5h575q15 0 25.5 10.5t10.5 25.5t-10.5 25.5t-25.5 10.5zM63 635.5q0 -29.5 21 -51t51 -21.5t51 21.5t21 51t-21 50.5t-51 21t-51 -21t-21 -50.5zM63 384q0 -30 21 -51t51 -21t51 21t21 51t-21 51t-51 21t-51 -21t-21 -51zM63 132.5q0 -29.5 21 -50.5
t51 -21t51 21t21 50.5t-21 51t-51 21.5t-51 -21.5t-21 -51z" />
    <glyph glyph-name="uniE790" unicode="&#xe790;" 
d="M133 599h758q14 0 24.5 11t10.5 25.5t-10.5 25t-24.5 10.5h-758q-15 0 -25.5 -10.5t-10.5 -25t10.5 -25.5t25.5 -11zM891 420h-758q-15 0 -25.5 -10.5t-10.5 -25.5t10.5 -25.5t25.5 -10.5h758q14 0 24.5 10.5t10.5 25.5t-10.5 25.5t-24.5 10.5zM891 169h-758
q-15 0 -25.5 -10.5t-10.5 -25.5t10.5 -25.5t25.5 -10.5h758q14 0 24.5 10.5t10.5 25.5t-10.5 25.5t-24.5 10.5z" />
    <glyph glyph-name="uniE796" unicode="&#xe796;" 
d="M325 34zM882 34zM236 19zM960 19zM64 107zM958 107zM65 37zM959 37zM840 269l-296 -296q-14 -14 -34 -14t-34 14l-296 296q-19 20 -7.5 46.5t38.5 26.5h147v421q0 19 13.5 33t33.5 14h211q19 0 33 -14t14 -33v-421h147q27 0 38.5 -27t-8.5 -46z" />
    <glyph glyph-name="uniE797" unicode="&#xe797;" 
d="M372 63v-2h-9h-6h-3q-52 0 -89.5 36.5t-38.5 89.5q-2 53 35 92q36 39 89 40h2h2q41 0 75 -24q47 -17 93 45t19 96q-10 7 -19 17l-3 3q-31 35 -32 81q-2 53 34.5 91.5t89.5 40.5h2h2q45 0 80 -28.5t45 -71.5q5 -18 7.5 -43t-1 -68.5t-28.5 -101.5t-69 -118
q-42 -55 -86 -93t-82 -54.5t-63 -22t-46 -5.5zM367 127q10 0 21 1t36.5 9.5t50 23t58 44.5t64.5 72q39 52 60.5 102t24.5 86t1 55t-6 32q-5 23 -22.5 37.5t-39.5 14.5q-28 0 -46 -19.5t-18 -45.5q1 -23 17 -41h1q6 -7 11 -11q4 -2 7 -5q9 -11 16 -25t11.5 -37t-6 -54
t-35.5 -64q-55 -75 -125 -75q-24 0 -48 10q-4 1 -7 4q-18 14 -39 14q-28 -1 -46 -20t-17 -45q0 -26 18.5 -44t44.5 -18h3q6 0 10 -1zM516 -71q-92 0 -175 35q-13 5 -18 17.5t0.5 24.5t17.5 17t25 0q71 -30 150 -30q105 0 194 52t141 141t52 194t-52 194.5t-141 141.5
t-194 52t-194.5 -52t-141.5 -141.5t-52 -194.5q0 -111 60 -205q7 -12 4 -25t-14.5 -20t-24.5 -4t-20 14q-69 110 -69 240q0 92 36 175.5t96.5 144t144 96.5t175 36t175.5 -36t144.5 -96.5t96 -144t35.5 -175t-35.5 -175.5t-96 -144.5t-144.5 -96t-175 -35.5z" />
    <glyph glyph-name="uniE7AC" unicode="&#xe7ac;" 
d="M647 631h-465q-50 0 -86 -35.5t-36 -85.5v-393q0 -50 36 -85.5t86 -35.5h465q50 0 85.5 35.5t35.5 85.5v393q1 50 -35 85.5t-86 35.5zM182 566h465q23 0 39.5 -16.5t16.5 -39.5v-127h-578v127q1 23 17.5 39.5t39.5 16.5zM647 61h-465q-24 0 -40.5 16.5t-16.5 40.5v197
h578v-197q1 -24 -16 -40.5t-40 -16.5zM384 222h-146q-14 0 -24.5 -10t-10.5 -24t10 -24.5t25 -10.5h146q14 0 24 10t10 25q0 14 -10 24t-24 10zM593 222h-56q-14 0 -24 -10t-10 -24t10 -24.5t24 -10.5h56q15 0 25 10t10 25q-1 14 -10.5 24t-24.5 10zM844 842h-465
q-50 0 -85.5 -35.5t-35.5 -86.5v-25h65v25q0 24 16.5 40.5t39.5 16.5h465q24 0 40.5 -16.5t16.5 -40.5v-392q0 -23 -16.5 -39.5t-40.5 -16.5h-19v-65h19q51 0 86.5 35.5t35.5 85.5v392q0 51 -35.5 86.5t-86.5 35.5z" />
    <glyph glyph-name="uniE7AD" unicode="&#xe7ad;" 
d="M150 508h154q37 0 63.5 26.5t26.5 63.5v154q0 37 -26.5 63.5t-63.5 26.5h-154q-37 0 -63.5 -26.5t-26.5 -63.5v-154q0 -37 26.5 -63.5t63.5 -26.5zM137 752q0 6 3.5 10t9.5 4h154q6 0 9.5 -4t3.5 -10v-154q0 -5 -3.5 -9t-9.5 -4h-154q-6 0 -9.5 4t-3.5 9v154zM304 268
h-154q-37 0 -63.5 -26.5t-26.5 -63.5v-154q0 -37 26.5 -63.5t63.5 -26.5h154q37 0 63.5 26.5t26.5 63.5v154q0 37 -26.5 63.5t-63.5 26.5zM317 24q0 -6 -3.5 -10t-9.5 -4h-154q-6 0 -9.5 4t-3.5 10v154q0 5 3.5 9t9.5 4h154q6 0 9.5 -4t3.5 -9v-154zM879 842h-154
q-38 0 -64 -26.5t-26 -63.5v-154q0 -37 26 -63.5t64 -26.5h154q37 0 63 26.5t26 63.5v154q0 37 -26 63.5t-63 26.5zM892 598q0 -5 -4 -9t-10 -4h-154q-5 0 -9 4t-4 9v154q0 6 4 10t9 4h154q6 0 10 -4t4 -10v-154zM674 344q15 0 25.5 10.5t10.5 25.5t-10.5 25.5t-25.5 10.5
h-126v142q0 15 -10.5 25.5t-26.5 9.5q-15 0 -25.5 -10.5t-10.5 -25.5v-141h-379q-15 0 -25.5 -10.5t-10.5 -25.5t10.5 -26t25.5 -11h380v-169q0 -15 10.5 -25.5t25.5 -10.5t25.5 10.5t10.5 25.5v169h126v1zM932 344q15 0 25.5 10.5t10.5 25.5t-10.5 25.5t-25.5 10.5h-80
q-15 0 -25.5 -10.5t-10.5 -25.5t10.5 -25.5t25.5 -10.5h80zM512 729q15 0 25.5 10.5t10.5 25.5v42q0 15 -10.5 25.5t-25.5 10.5t-25.5 -10.5t-10.5 -25.5v-42q0 -15 10.5 -25.5t25.5 -10.5zM512 47q-15 0 -25.5 -10.5t-10.5 -25.5v-42q0 -15 10.5 -25.5t25.5 -10.5
t25.5 10.5t10.5 25.5v42q0 15 -10.5 25.5t-25.5 10.5zM893 24q0 -5 -4 -9t-9 -4h-39v-75h39q36 0 62 26t26 63v43h-75v-44zM880 265h-153q-36 0 -62 -26t-26 -63v-152q0 -37 26 -62.5t62 -25.5h39v75h-39q-5 0 -9 4t-4 9v152q0 6 4 9.5t9 3.5h153q5 0 9 -3.5t4 -9.5v-33h75
v33q0 37 -26 63t-62 26z" />
    <glyph glyph-name="uniE7AE" unicode="&#xe7ae;" 
d="M571 497l-2 4q-2 2 -5 3l-248 30q-8 1 -11 -6q-2 -6 2 -10q1 -1 2 -1l158 -120q7 -5 12 1l90 90q4 4 2 9zM689 162l-26 217q0 3 -3 6q-1 1 -3 2q-6 2 -10 -2l-77 -77q-6 -6 -1 -13l103 -140l1 -1q5 -4 10 -2q7 3 6 10zM471 166l-21 143q2 4 1 8q-1 2 -2 3l-1 2q-1 0 -1 1
l-4 2q-4 1 -7 -1l-144 20q-7 1 -10 -5q-2 -6 2 -11h1l98 -72l71 -97l1 -1q5 -4 10 -2q7 3 6 10zM375 313l276 276q13 13 31.5 13t31.5 -13q14 -13 14 -31.5t-13 -32.5l-276 -276zM375 313l276 276q13 13 31.5 13t31.5 -13q14 -13 14 -31.5t-13 -32.5l-276 -276zM833 63
q-9 -9 -21 -19q-67 -58 -151 -87q-87 -29 -179 -22t-174 48q-78 41 -136 108t-87 151q-29 87 -22 179q6 92 48 173q34 66 86 117q10 9 22 20q67 58 151 86q87 30 179 23q108 -8 204 -66v-1q17 -9 16 -28q-1 -11 -9 -18q-9 -10 -23 -9q-2 0 -6 2h-1h-1l-2 1q-81 51 -180 58
q-78 6 -152 -18.5t-133 -75.5q-10 -9 -18 -17q-52 -51 -82 -115t-35 -137q-6 -78 18.5 -151.5t76 -133t120.5 -94.5t147.5 -41t152 18.5t133.5 75.5q11 9 19 17q51 50 81 115q30 64 35 136q10 128 -59 238v0q-7 8 -6 19v1q0 11 8 19q9 9 20 9q12 0 21 -9q1 0 2 -1v-1
q83 -129 72 -279q-7 -92 -49 -173q-34 -66 -86 -118z" />
    <glyph glyph-name="uniE7B1" unicode="&#xe7b1;" 
d="M-474 -86zM509 72q-11 0 -18 -7.5t-7 -17.5v-82q0 -10 7.5 -17.5t17.5 -7.5t17.5 7.5t7.5 17.5v82q0 10 -7 17.5t-18 7.5zM734 135q-7 7 -17.5 7t-18 -7.5t-7.5 -18t8 -18.5l57 -57q8 -8 18.5 -8t17.5 8q8 7 8 17.5t-8 17.5zM293 142q-10 0 -18 -7l-58 -58
q-7 -8 -7 -18.5t7.5 -18t18 -7.5t17.5 7l58 58q7 7 7 18t-7 18q-7 8 -18 8zM916 345q-1 76 -30 146.5t-82 126.5q-52 55 -120.5 87.5t-144.5 38.5q-4 0 -4 5v62q0 11 -7.5 18.5t-18 7.5t-18 -7.5t-7.5 -18.5v-62q0 -5 -5 -5q-75 -6 -143.5 -38.5t-121.5 -87.5
q-53 -56 -81.5 -126.5t-30.5 -146.5v-1v-62h200q4 0 5 -4q18 -70 74.5 -113.5t128.5 -43.5q71 0 127.5 43.5t74.5 113.5q2 4 5 4h200v62q-1 0 -1 1zM654 274q-17 -45 -57 -72.5t-88 -27.5t-88 27.5t-57 72.5q-1 3 0 5q2 2 5 2h281q3 0 4 -2t0 -5zM856 341q-1 -1 -4 -1h-686
q-2 0 -4 1q-1 2 -1 4q3 141 104 241q102 99 244 99t244 -99q101 -99 105 -241z" />
    <glyph glyph-name="uniE7B8" unicode="&#xe7b8;" 
d="M297 556q-6 -14 -6 -30q0 -34 25 -58.5t59.5 -24.5t59 24.5t24.5 59t-24.5 59t-59.5 24.5q-16 0 -30 -5l-124 124q-10 11 -24.5 11t-24.5 -10.5t-10 -24.5t10 -24zM933 418l-381 381q-36 35 -86 35t-86 -35l-48 -49q-8 -9 -8 -22t9.5 -22.5t22.5 -9.5q12 0 21 8h1l48 49
q17 16 40 16t40 -16l380 -381q17 -16 17 -39.5t-17 -39.5l-277 -278q-17 -16 -40 -16t-39 16l-381 381q-17 16 -17 39.5t17 39.5l49 49h-1q8 9 8 22t-9.5 22.5t-22.5 9.5q-12 0 -21 -8h-1l-48 -49q-36 -35 -36 -85.5t36 -85.5l380 -381q36 -35 86 -35t86 35l277 278
q36 35 36 85.5t-35 85.5z" />
    <glyph glyph-name="uniE7B9" unicode="&#xe7b9;" 
d="M896 633l-2 2q-9 9 -21 9q-11 0 -19 -9q-9 -8 -9 -19v-1q0 -11 6 -18v-1q5 -8 15 -25q-79 -47 -79 -117q1 -89 -12 -99q-6 -4 -37 -4q-38 0 -47 -20q0 -1 -2.5 -4t-3.5 -4q-28 -38 -40.5 -64t-3.5 -48q7 -16 24 -45t20 -36q12 -29 4 -40q-14 -20 -18 -49q-1 -9 -1 -16
q-86 -36 -180 -29q-64 5 -120 28q-10 55 -8 77q8 -1 15 0q15 3 49.5 17.5t43.5 26.5q6 8 6 21t-3.5 25t-12.5 40q-6 17 -7 22q-3 8 26 29q1 1 4 3l1 1q4 3 29 18q23 13 26 16q8 8 17.5 38t9.5 45q0 31 -51 48q-17 6 -38 10q-12 2 -51 -16q-37 -17 -46 -27q-5 -4 -16.5 -7.5
t-16.5 -2.5q-22 5 -69 -3.5t-70 -23.5q-17 -12 -78 -50q-5 40 -2 85q5 72 35 136q28 65 81 116q2 2 5.5 5t5.5 5l47 -27l128 -51h120l71 88l6 77q53 -14 100 -44l2 -1h1h1q3 -1 6 -1q13 -1 23 8q8 8 9 19q1 18 -16 28v0q-95 58 -204 66q-91 7 -179 -22q-86 -30 -151 -87
q-15 -13 -21 -20q-53 -50 -87 -117q-42 -81 -48 -173q-7 -91 22 -179q29 -84 87 -151t136 -107q82 -42 173 -49t179 23q84 28 151 86q15 13 22 20q52 51 86 117q42 81 48 173q12 150 -71 279zM548 779q3 0 7 -0.5t8.5 -1t6.5 -0.5l-5 -67l-43 -52h-81l-114 45l-23 13
q111 73 244 63zM221 131q-54 63 -78 141q2 2 22.5 14.5t42 26t31.5 20.5q13 8 48 14.5t47 4.5q20 -4 48 4.5t40 22.5q17 12 50 24q21 -5 34 -10q-4 -14 -10 -32q-2 0 -4.5 -1.5t-4.5 -3t-4 -2.5q-29 -17 -36 -23q-1 0 -2 -1t-2 -1q-61 -46 -46 -93l7 -22q10 -31 11 -36
q-34 -17 -49 -20q-1 0 -6 1q-44 4 -55 -40q-5 -21 0 -61q-46 30 -84 73zM910 359q-5 -73 -35 -137t-81 -114q-7 -7 -19 -17q-18 -16 -35 -27q20 35 -1 87q-5 13 -25 45q-13 23 -19 35q2 13 36 57q0 1 1.5 2.5t1.5 2.5h4q45 0 65 11q25 14 33.5 49.5t7.5 100.5q0 34 45 63
q27 -76 21 -158z" />
    <glyph glyph-name="uniE7BA" unicode="&#xe7ba;" 
d="M880 754h-729q-37 0 -63 -26t-26 -63v-160v-5v-382q0 -37 26 -63t63 -26h729q37 0 63 26t26 63v382v5v160q0 37 -26 63t-63 26zM151 695h729q12 0 21 -9t9 -21v-76q-15 5 -30 5h-28h-84h-504h-85h-28q-15 0 -30 -5v76q0 12 8.5 21t21.5 9zM709 535l-154 -156
q-22 -22 -39 -21q-18 0 -39 21l-155 156h387zM910 117q0 -12 -9 -20.5t-21 -8.5h-729q-13 0 -21.5 8.5t-8.5 20.5v383v5q0 12 8.5 20.5t21.5 8.5h86l196 -198q39 -39 82 -39t82 40l196 198h87q12 0 20.5 -9t8.5 -21v-5v-383h1z" />
    <glyph glyph-name="uniE7BB" unicode="&#xe7bb;" 
d="M718 456l-268 -269l-134 139q-9 9 -21.5 9t-21.5 -9t-9 -21.5t9 -21.5l155 -161q8 -8 20 -8.5t21 7.5q1 0 2 1.5t2 1.5l289 289q9 9 9 21.5t-9 21.5t-22 9t-22 -9zM796 701h-99q-17 62 -68.5 101.5t-117 39.5t-117 -40t-68.5 -101h-99q-36 0 -61 -25.5t-25 -60.5v-595
q0 -36 25 -61.5t61 -25.5h569q36 0 61.5 25.5t25.5 61.5v595q0 35 -25.5 60.5t-61.5 25.5zM511.5 778q38.5 0 70.5 -21.5t48 -55.5h-236q16 34 47.5 55.5t70 21.5zM825 20q0 -12 -8.5 -20.5t-20.5 -8.5h-569q-12 0 -20.5 8.5t-8.5 20.5v595q0 12 8.5 20.5t20.5 8.5h92v-87
h66v87h255v-87h66v87h90q12 0 20.5 -8.5t8.5 -20.5v-595z" />
    <glyph glyph-name="uniE7BC" unicode="&#xe7bc;" 
d="M188.5 514q-52.5 0 -90 -37.5t-37.5 -90t37.5 -90t90 -37.5t90 37.5t37.5 90t-37.5 90t-90 37.5zM188 454q28 0 48 -20t20 -48t-20 -47.5t-48 -19.5t-48 19.5t-20 47.5t20 48t48 20zM840 514q-53 0 -90 -37.5t-37 -90t37 -90t90 -37.5t90 37.5t37 90t-37 90t-90 37.5z
M840 454q28 0 48 -20t20 -48t-20 -47.5t-48 -19.5t-48 19.5t-20 47.5t20 48t48 20zM515.5 514q-52.5 0 -90 -37.5t-37.5 -90t37.5 -90t90 -37.5t90 37.5t37.5 90t-37.5 90t-90 37.5zM515.5 454q28.5 0 48 -20t19.5 -48t-19.5 -47.5t-48 -19.5t-48 19.5t-19.5 47.5t19.5 48
t48 20z" />
  </font>
</defs>
</svg>
